<?xml version="1.0" standalone="no"?>
<!DOCTYPE svg PUBLIC "-//W3C//DTD SVG 20010904//EN"
 "http://www.w3.org/TR/2001/REC-SVG-20010904/DTD/svg10.dtd">
<svg version="1.0" xmlns="http://www.w3.org/2000/svg"
 width="800.000000pt" height="800.000000pt" viewBox="0 0 800.000000 800.000000"
 preserveAspectRatio="xMidYMid meet">
<metadata>
Created by potrace 1.11, written by Peter Selinger 2001-2013
</metadata>
<g transform="translate(0.000000,800.000000) scale(0.100000,-0.100000)"
fill="#000000" stroke="none">
<path d="M3728 7133 c7 -3 16 -2 19 1 4 3 -2 6 -13 5 -11 0 -14 -3 -6 -6z"/>
<path d="M2337 7123 c-12 -12 -7 -53 6 -50 6 1 11 -5 9 -13 -6 -28 18 5 27 38
9 29 8 32 -13 32 -12 0 -26 -3 -29 -7z"/>
<path d="M4315 7120 c-32 -12 -48 -37 -41 -64 5 -20 0 -28 -24 -43 -16 -9 -30
-23 -30 -30 0 -7 -11 -13 -26 -13 -27 0 -24 19 4 22 9 1 -64 5 -163 8 -177 5
-180 5 -183 28 -2 12 -8 22 -13 22 -6 0 -7 -5 -4 -10 3 -6 -3 -14 -14 -18 -19
-7 -19 -10 -7 -34 12 -23 12 -27 -5 -34 -12 -6 20 -9 88 -9 60 0 207 -3 328
-7 121 -4 209 -3 195 2 -14 4 -39 8 -57 9 -25 1 -35 8 -47 31 l-14 30 54 0 54
0 0 35 c0 31 3 35 25 35 21 0 25 -5 25 -29 0 -17 4 -32 9 -35 17 -11 19 -65 2
-68 -8 -2 26 -3 75 -3 49 0 195 -3 324 -7 196 -5 224 -5 170 5 -55 10 -65 15
-65 32 -1 11 4 23 10 27 5 4 -2 8 -17 8 -14 0 -33 3 -42 6 -19 7 -21 54 -3 74
10 12 9 12 -5 1 -10 -7 -18 -26 -18 -40 0 -15 -6 -39 -12 -54 -11 -22 -20 -27
-50 -27 -21 0 -38 4 -38 9 0 4 13 7 30 5 16 -2 31 0 34 5 3 4 -77 9 -177 10
-100 1 -179 -1 -175 -4 3 -3 47 -6 97 -7 50 0 91 -5 91 -10 0 -5 -41 -8 -95
-7 -95 3 -96 3 -110 32 -8 17 -15 36 -15 43 0 21 -47 66 -67 64 -36 -4 -49 1
-28 10 16 7 13 9 -15 9 -19 0 -44 -4 -55 -9z m-255 -140 c0 -12 -20 -12 -75
-1 -40 9 -39 9 18 10 32 0 57 -3 57 -9z m80 0 c0 -4 -16 -7 -35 -7 -19 0 -35
3 -35 7 0 4 16 7 35 7 19 0 35 -3 35 -7z m610 0 c0 -5 -10 -10 -22 -9 -22 0
-22 1 -3 9 11 5 21 9 23 9 1 1 2 -3 2 -9z m40 -2 c0 -4 -7 -8 -15 -8 -8 0 -15
4 -15 8 0 5 7 9 15 9 8 0 15 -4 15 -9z"/>
<path d="M3007 7102 c-10 -10 -17 -31 -17 -45 0 -24 -4 -27 -34 -27 -18 0 -39
-7 -46 -15 -18 -21 -407 -22 -424 -1 -14 17 -73 29 -81 16 -7 -11 6 -13 43
-10 19 1 22 -3 22 -34 l0 -36 -60 0 c-54 0 -60 2 -52 18 5 9 5 31 1 47 l-7 30
-1 -27 c-1 -32 -21 -39 -21 -8 0 17 -7 20 -44 20 -26 0 -48 -6 -56 -15 -10
-12 -60 -14 -321 -13 -284 2 -311 3 -329 20 -12 12 -34 18 -64 18 -40 0 -48
-4 -75 -39 -17 -21 -31 -45 -31 -53 0 -7 -7 -23 -15 -35 -10 -14 -12 -24 -5
-28 5 -3 10 -2 10 3 0 6 7 13 16 16 8 3 12 2 9 -4 -4 -6 12 -10 40 -10 39 0
46 3 43 18 -4 24 28 68 35 49 3 -8 0 -20 -6 -26 -8 -8 -6 -11 8 -11 17 0 18
-2 5 -10 -10 -6 132 -10 409 -10 233 0 421 3 418 7 -4 3 -24 9 -44 13 -34 7
-31 8 25 9 34 0 64 2 67 3 2 0 25 4 50 8 33 5 45 3 45 -6 0 -7 -8 -10 -18 -7
-10 2 -24 -3 -31 -11 -12 -14 -3 -16 92 -16 75 0 107 4 110 13 4 10 6 10 6 0
1 -7 11 -13 24 -13 13 0 29 6 36 13 11 10 12 9 7 -1 -6 -10 7 -12 58 -11 46 1
66 6 66 15 0 8 -9 11 -25 8 -14 -2 -25 0 -25 6 0 7 46 9 140 5 92 -4 140 -2
140 5 0 5 -21 10 -47 10 -27 0 -43 4 -38 8 14 10 39 55 26 47 -7 -3 -11 2 -11
14 0 12 3 21 8 21 4 0 7 18 8 40 0 44 -13 51 -39 22z m12 -48 c-6 -8 -9 -20
-6 -27 3 -8 1 -20 -4 -28 -6 -9 -9 2 -9 33 0 38 3 46 15 42 12 -5 13 -10 4
-20z m-392 -120 c-3 -3 -12 -4 -19 -1 -8 3 -5 6 6 6 11 1 17 -2 13 -5z m136
-1 c-7 -2 -21 -2 -30 0 -10 3 -4 5 12 5 17 0 24 -2 18 -5z m44 1 c-3 -3 -12
-4 -19 -1 -8 3 -5 6 6 6 11 1 17 -2 13 -5z"/>
<path d="M5595 7100 c-3 -6 1 -7 9 -4 18 7 21 14 7 14 -6 0 -13 -4 -16 -10z"/>
<path d="M5562 7078 c-7 -7 -12 -23 -12 -37 0 -15 -3 -36 -6 -49 l-6 -22 -187
2 c-136 2 -186 6 -186 15 0 7 -6 18 -12 24 -10 10 -11 6 -3 -22 6 -18 10 -34
10 -35 0 0 28 -2 63 -3 34 -1 85 -4 112 -6 111 -7 407 -13 360 -6 -41 6 -47 9
-30 17 34 16 30 37 -5 29 -25 -5 -29 -4 -24 9 5 13 -1 16 -31 16 l-37 0 4 40
c2 22 3 40 3 40 -1 0 -6 -5 -13 -12z"/>
<path d="M3578 7074 c-5 -4 -8 -23 -8 -41 l0 -34 -216 3 -215 3 4 -23 c3 -13
-2 -26 -11 -31 -11 -6 -7 -9 16 -13 17 -2 29 -1 26 4 -3 4 0 8 5 8 6 0 11 -6
11 -12 0 -9 3 -10 8 -2 4 7 32 10 72 8 200 -9 509 -11 504 -3 -3 5 -31 9 -63
9 l-57 0 4 35 c4 34 3 35 -31 35 -33 0 -36 3 -39 31 -2 17 -6 27 -10 23z"/>
<path d="M6440 7015 l-23 -25 -298 0 c-188 0 -300 4 -304 10 -13 22 -23 9 -15
-20 7 -23 5 -32 -8 -41 -15 -9 -15 -10 1 -5 10 3 21 6 23 6 2 0 4 6 4 14 0 10
8 13 25 10 16 -3 25 0 25 8 0 8 3 9 8 3 4 -6 34 -11 67 -12 125 -4 224 -11
233 -17 4 -3 62 -8 127 -11 118 -6 139 -13 128 -42 -4 -11 4 -14 38 -11 35 2
43 6 41 21 -2 15 6 17 58 17 39 0 59 4 55 10 -4 6 -11 8 -16 5 -5 -4 -9 -1 -9
6 0 7 -7 21 -17 31 -9 10 -21 28 -27 41 -18 34 -84 36 -116 2z m140 -74 c0 -5
-12 -7 -26 -5 -37 4 -39 11 -4 12 16 0 30 -3 30 -7z"/>
<path d="M3080 7020 c0 -5 14 -7 33 -3 45 8 47 13 4 13 -20 0 -37 -4 -37 -10z"/>
<path d="M5678 7003 c7 -3 16 -2 19 1 4 3 -2 6 -13 5 -11 0 -14 -3 -6 -6z"/>
<path d="M5000 6990 c0 -5 7 -7 15 -4 8 4 15 8 15 10 0 2 -7 4 -15 4 -8 0 -15
-4 -15 -10z"/>
<path d="M5228 6993 c7 -3 16 -2 19 1 4 3 -2 6 -13 5 -11 0 -14 -3 -6 -6z"/>
<path d="M5263 6993 c8 -8 88 -9 100 -1 7 4 -14 7 -46 7 -32 -1 -56 -4 -54 -6z"/>
<path d="M5388 6992 c14 -9 131 -7 140 2 3 3 -30 6 -74 6 -44 0 -73 -4 -66 -8z"/>
<path d="M5055 6981 c-6 -11 9 -23 19 -14 9 9 7 23 -3 23 -6 0 -12 -4 -16 -9z"/>
<path d="M5120 6940 c-8 -5 -10 -10 -5 -10 6 0 17 5 25 10 8 5 11 10 5 10 -5
0 -17 -5 -25 -10z"/>
<path d="M2887 6924 c-17 -18 -3 -24 52 -24 63 0 93 14 38 18 -18 1 -43 4 -57
7 -14 3 -29 3 -33 -1z"/>
<path d="M4016 6922 c-3 -5 1 -9 9 -9 8 0 12 4 9 9 -3 4 -7 8 -9 8 -2 0 -6 -4
-9 -8z"/>
<path d="M3150 6909 c0 -5 5 -7 10 -4 6 3 10 8 10 11 0 2 -4 4 -10 4 -5 0 -10
-5 -10 -11z"/>
<path d="M2398 6903 c6 -2 18 -2 25 0 6 3 1 5 -13 5 -14 0 -19 -2 -12 -5z"/>
<path d="M6501 6854 c0 -11 3 -14 6 -6 3 7 2 16 -1 19 -3 4 -6 -2 -5 -13z"/>
<path d="M1410 6825 c0 -8 4 -15 10 -15 5 0 7 7 4 15 -4 8 -8 15 -10 15 -2 0
-4 -7 -4 -15z"/>
<path d="M1481 6734 c0 -11 3 -14 6 -6 3 7 2 16 -1 19 -3 4 -6 -2 -5 -13z"/>
<path d="M1431 6704 c0 -11 3 -14 6 -6 3 7 2 16 -1 19 -3 4 -6 -2 -5 -13z"/>
<path d="M1396 6643 c-4 -9 -2 -21 4 -27 7 -7 10 -7 10 1 0 6 3 18 6 27 3 9 2
16 -4 16 -5 0 -13 -8 -16 -17z"/>
<path d="M1440 6630 c0 -5 5 -10 11 -10 5 0 7 5 4 10 -3 6 -8 10 -11 10 -2 0
-4 -4 -4 -10z"/>
<path d="M6643 6580 c0 -25 2 -35 4 -22 2 12 2 32 0 45 -2 12 -4 2 -4 -23z"/>
<path d="M1417 6546 c-9 -13 -17 -41 -18 -63 -1 -21 -6 -42 -10 -48 -4 -5 -7
-22 -7 -37 0 -19 6 -28 22 -31 20 -4 20 -4 -1 -6 -13 0 -23 -5 -23 -11 0 -5 3
-9 8 -9 26 4 34 -3 30 -25 -4 -18 0 -26 16 -30 19 -5 36 8 36 28 0 6 -6 2 -13
-9 -10 -12 -16 -14 -21 -7 -4 7 -3 12 3 12 6 0 8 7 5 15 -5 11 -2 13 12 8 13
-5 16 -3 11 10 -4 10 -1 17 6 17 8 0 6 4 -3 10 -13 8 -12 10 5 11 11 1 2 5
-20 9 l-40 7 43 2 c38 1 42 4 42 25 0 14 -12 37 -26 53 -17 18 -24 35 -21 50
7 36 -17 48 -36 19z m21 -38 c-13 -58 -32 -76 -24 -23 9 56 16 76 26 70 4 -3
4 -24 -2 -47z m7 -148 c3 -5 1 -10 -4 -10 -6 0 -11 5 -11 10 0 6 2 10 4 10 3
0 8 -4 11 -10z"/>
<path d="M6637 6474 c-3 -3 -3 -12 -1 -19 3 -7 0 -16 -5 -20 -6 -3 -9 -9 -7
-13 2 -4 -7 -7 -20 -7 -15 0 -24 6 -24 15 -1 12 -3 12 -14 -2 -9 -13 -16 -14
-24 -6 -14 14 -24 7 -14 -9 6 -9 68 -17 108 -14 6 1 11 19 12 41 2 40 0 45
-11 34z"/>
<path d="M3548 6414 c-2 -1 -459 -4 -1017 -5 l-1012 -2 -12 -26 c-6 -15 -12
-110 -14 -221 -2 -107 -5 -196 -8 -197 -2 -1 -14 1 -26 4 -15 4 -17 8 -8 14 8
4 10 11 6 15 -3 4 -13 2 -20 -4 -10 -9 -17 -8 -25 0 -7 7 -12 8 -12 3 0 -6 -5
-3 -10 5 -9 13 -11 13 -20 0 -7 -11 -10 3 -10 47 0 34 5 65 10 68 6 3 10 11
10 16 0 6 -4 8 -9 4 -6 -3 -12 12 -14 32 -2 24 -4 14 -5 -28 l-2 -66 -62 -19
c-87 -26 -385 -27 -470 -1 -81 25 -114 22 -170 -15 -55 -35 -68 -58 -68 -122
0 -38 5 -48 39 -79 51 -46 103 -54 241 -39 163 18 341 13 473 -14 45 -9 31
-29 -30 -42 -107 -24 -280 -27 -408 -7 -184 28 -262 11 -310 -65 -39 -61 -34
-99 19 -148 51 -47 88 -57 184 -48 188 17 357 17 451 -1 52 -10 96 -24 98 -30
13 -37 -290 -56 -472 -29 -140 20 -170 20 -222 -4 -31 -14 -47 -29 -59 -57
-27 -62 -21 -100 21 -143 54 -55 106 -67 209 -49 97 17 321 18 391 2 28 -7 67
-15 88 -18 59 -10 40 -28 -49 -47 -97 -20 -194 -22 -339 -6 -175 20 -213 17
-263 -17 -46 -31 -72 -77 -72 -126 0 -37 63 -109 95 -109 13 0 25 -4 27 -9 3
-8 51 -4 193 18 39 6 106 11 150 11 115 0 315 -38 315 -60 0 -4 -48 -15 -108
-25 -120 -19 -308 -17 -447 5 -91 14 -125 7 -174 -39 -34 -32 -51 -68 -51
-111 0 -32 59 -110 94 -123 12 -5 69 -1 141 9 142 22 350 22 444 2 98 -22 91
-38 -16 -38 -77 0 -177 -10 -423 -40 -36 -4 -144 -3 -240 2 -204 11 -252 7
-295 -26 -35 -27 -65 -81 -65 -116 0 -32 38 -80 76 -96 28 -12 62 -12 206 -2
156 10 194 9 388 -11 118 -11 263 -21 323 -21 84 0 107 -3 107 -14 0 -38 -294
-62 -425 -34 -74 15 -225 22 -225 9 0 -6 -13 -17 -29 -26 -17 -8 -39 -34 -52
-60 -22 -43 -22 -48 -8 -88 11 -28 22 -43 37 -45 11 -2 33 -15 48 -29 30 -28
38 -28 249 -3 106 13 260 8 357 -11 44 -9 58 -16 58 -29 0 -12 -11 -19 -32
-23 -18 -4 -64 -13 -103 -22 -77 -17 -209 -19 -295 -4 -104 17 -217 22 -224
10 -4 -6 -15 -11 -25 -11 -37 0 -81 -77 -81 -142 0 -84 67 -111 227 -92 29 4
51 9 49 13 -7 11 317 5 404 -8 84 -12 85 -12 104 11 l18 23 -5 -40 c-15 -97
-18 -183 -9 -189 6 -3 34 -7 64 -8 l53 -2 -3 -141 c-2 -77 -7 -147 -12 -155
-4 -8 -5 -35 -3 -59 3 -29 0 -47 -9 -53 -10 -7 -8 -8 4 -4 17 5 18 -15 18
-317 0 -289 -2 -345 -27 -547 -14 -124 -29 -227 -32 -230 -3 -3 -6 -21 -7 -40
0 -19 -4 -60 -8 -90 l-8 -55 1609 0 c2043 0 3333 -7 3339 -17 3 -5 9 -6 14 -3
12 8 110 13 105 6 -2 -3 19 -4 47 -2 27 1 54 -1 60 -7 6 -6 19 -5 37 4 27 13
28 16 20 62 -4 26 -10 76 -12 112 -4 50 -3 59 5 40 6 -14 12 -38 14 -55 4 -44
11 -94 19 -145 l7 -46 55 -2 55 -2 -4 43 c-18 166 -41 335 -48 352 -11 26 -30
201 -31 285 -1 36 -6 71 -13 79 -6 8 -6 12 -1 9 13 -8 18 69 5 77 -6 3 -10 13
-10 21 0 9 5 12 12 8 7 -5 8 -3 2 7 -5 8 -7 22 -5 33 1 10 -1 16 -6 13 -5 -3
-10 -20 -11 -39 -2 -18 -6 -36 -10 -40 -4 -4 -5 27 -2 68 3 42 1 78 -4 81 -5
4 -6 2 -3 -3 3 -6 2 -16 -4 -24 -7 -12 -9 -11 -10 5 -1 11 -1 30 -1 43 1 28
-6 28 -17 0 -5 -15 -4 -26 3 -31 7 -6 6 -7 -4 -4 -10 2 -14 13 -12 30 2 15 -1
27 -5 27 -5 0 -10 -18 -11 -41 -3 -37 -1 -40 18 -34 12 4 20 2 20 -5 0 -6 -4
-9 -9 -6 -5 3 -11 -1 -15 -9 -3 -8 -1 -15 4 -15 6 0 10 -5 10 -11 0 -5 -5 -7
-12 -3 -7 4 -8 3 -4 -4 4 -7 13 -12 20 -12 7 0 13 -7 13 -15 0 -8 -5 -11 -10
-8 -6 4 -7 -4 -3 -21 5 -21 4 -26 -6 -21 -7 4 -6 1 3 -7 14 -11 17 -28 21
-118 1 -8 8 -21 17 -28 14 -11 13 -11 -6 -2 -18 8 -23 8 -23 -2 0 -8 -5 -6
-11 5 -12 20 -3 41 13 31 7 -4 8 -2 4 5 -6 9 -11 9 -22 0 -11 -9 -14 -9 -14 0
0 7 -4 9 -10 6 -6 -3 -10 -11 -10 -16 0 -6 5 -7 10 -4 15 10 12 -5 -5 -22 -14
-14 -16 -11 -14 25 2 29 7 38 16 35 10 -4 12 2 8 26 -3 18 -1 31 5 31 7 0 8 6
1 19 -6 10 -7 22 -3 26 4 5 -1 5 -10 2 -10 -4 -18 -2 -18 3 0 6 8 10 18 11 14
0 14 2 2 7 -13 6 -15 47 -17 262 -2 147 1 256 7 260 16 10 20 61 4 67 -10 4
-14 25 -15 87 0 44 -3 101 -7 126 -4 25 -5 61 -1 80 l5 35 8 -37 c5 -21 13
-38 20 -38 24 -1 91 -12 95 -16 2 -2 -9 -4 -26 -4 -17 0 -37 -8 -44 -17 -12
-16 -12 -17 1 -6 30 23 38 1 36 -102 -1 -75 2 -99 12 -98 6 2 12 -2 12 -7 0
-15 -26 -12 -39 3 -6 8 -7 18 -3 22 4 5 1 5 -6 1 -7 -4 -10 -12 -7 -17 4 -5 2
-9 -4 -9 -14 0 7 -56 27 -72 15 -11 15 -11 6 2 -6 8 -14 28 -18 44 -6 26 -6
28 9 16 9 -7 14 -19 11 -27 -3 -7 1 -13 8 -13 10 0 13 -19 11 -80 -2 -67 0
-78 11 -69 10 8 11 15 4 24 -5 6 -7 15 -3 19 4 4 8 71 9 149 2 78 -1 133 -5
122 -5 -11 -6 -27 -3 -35 3 -8 2 -12 -2 -8 -15 13 -14 121 0 135 10 11 12 39
7 128 l-6 115 194 0 c132 0 199 4 206 11 16 16 444 18 464 3 41 -33 218 -22
205 13 -3 8 -2 12 3 8 16 -10 51 46 51 82 0 19 -12 54 -26 79 -36 61 -76 77
-174 70 -280 -22 -347 -19 -555 19 -44 8 -137 15 -207 15 -79 0 -128 4 -128
10 0 11 74 15 190 11 41 -1 132 5 203 15 125 16 282 16 520 -2 53 -4 77 -3 77
5 0 6 8 11 18 11 21 1 63 36 87 72 12 20 15 36 9 55 -4 16 -7 31 -6 34 0 3
-17 24 -39 45 l-40 39 -77 -2 c-288 -7 -421 -6 -462 6 -25 6 -141 16 -258 20
-117 5 -216 11 -219 15 -11 11 3 16 78 27 115 17 234 18 349 4 124 -16 197
-18 204 -6 3 5 18 12 33 16 37 9 61 32 79 74 20 48 10 83 -40 136 l-43 45 -74
0 c-41 0 -101 -7 -134 -15 -33 -8 -105 -14 -159 -15 -107 0 -266 19 -266 32 0
4 -9 8 -20 8 -11 0 -20 4 -20 9 0 4 100 11 223 14 122 3 242 11 267 17 57 14
305 18 433 6 85 -8 102 -7 137 9 46 21 75 70 72 119 -3 32 -74 116 -99 116 -7
0 -13 7 -13 16 0 18 -23 17 -150 -7 -90 -17 -335 -14 -450 5 -61 10 -156 16
-262 16 -105 0 -168 4 -168 10 0 6 68 10 183 10 131 0 203 5 257 16 103 23
339 23 440 1 126 -28 142 -25 206 37 54 52 56 56 50 93 -9 46 -65 108 -115
124 -23 8 -59 9 -110 3 -140 -15 -398 -11 -495 9 -61 12 -136 17 -242 17 -123
0 -154 3 -154 14 0 10 39 14 193 19 136 3 211 10 257 22 56 15 98 17 300 13
215 -5 238 -4 270 13 43 23 85 67 93 97 8 35 -14 91 -50 122 -54 47 -87 49
-273 10 -70 -15 -346 -9 -377 8 -15 8 -83 12 -222 12 -111 0 -201 4 -201 9 0
5 88 10 195 13 184 3 195 5 218 26 23 21 29 22 260 22 202 0 238 -2 243 -15
14 -36 124 -7 176 45 41 40 45 60 26 121 -18 62 -62 82 -173 80 -49 -1 -95 -7
-102 -13 -21 -17 -386 -6 -408 12 -14 12 -62 16 -232 18 -117 2 -213 7 -213
12 0 5 97 10 216 12 192 3 217 5 228 21 12 15 34 17 204 17 105 0 224 -5 266
-10 99 -14 142 -3 190 50 39 43 46 82 24 122 -35 61 -81 81 -167 74 -36 -3
-154 -8 -262 -12 -185 -6 -198 -5 -242 15 -42 19 -63 21 -254 21 l-208 0 1
-45 c1 -25 -5 -53 -12 -63 -13 -16 -14 -16 -7 2 4 12 3 17 -4 13 -6 -4 -14 1
-19 11 -6 14 -8 12 -14 -13 l-8 -30 -1 28 c-1 32 -5 33 -30 8 -14 -14 -16 -22
-7 -31 8 -9 7 -11 -7 -8 -17 3 -19 17 -23 168 -4 160 -7 204 -20 263 l-6 27
-111 0 c-559 0 -2816 12 -2829 15 -9 1 -18 1 -20 -1z m-1838 -97 c0 -8 -7 -14
-15 -14 -25 0 -17 17 13 26 1 1 2 -5 2 -12z m4598 -79 l-2 -73 -3 63 c-2 36
-8 60 -13 57 -11 -7 -14 8 -3 18 17 18 23 1 21 -65z m-3242 56 c19 -5 22 -14
26 -92 3 -48 3 -93 0 -100 -3 -9 -27 -12 -91 -10 -81 3 -86 4 -89 26 -2 13 0
28 5 35 5 7 8 23 6 37 -2 14 -4 41 -6 60 l-2 35 55 6 c30 3 60 6 65 7 6 1 20
-1 31 -4z m692 -87 l3 -87 37 0 c31 -1 34 -2 19 -11 -10 -6 -27 -9 -37 -6 -11
3 -21 -1 -24 -9 -6 -15 -87 -19 -144 -8 l-31 6 4 97 3 96 68 6 c106 9 99 15
102 -84z m-2051 51 c-3 -7 -5 -2 -5 12 0 14 2 19 5 13 2 -7 2 -19 0 -25z m723
-10 c0 -32 -3 -39 -10 -28 -8 13 -10 12 -10 -2 0 -10 4 -18 9 -18 5 0 9 -22 9
-50 1 -59 -6 -63 -108 -58 l-65 3 -2 98 -3 97 90 0 90 0 0 -42z m2008 -60 l-3
-103 -90 0 -90 0 -1 103 -1 102 94 0 94 0 -3 -102z m655 6 c4 -53 4 -100 1
-105 -3 -5 -40 -9 -83 -9 -88 0 -108 11 -92 52 5 13 7 37 4 52 -4 19 -2 27 5
22 7 -4 7 5 -1 30 -14 47 -3 54 89 54 l71 0 6 -96z m640 87 l37 -1 0 -80 c0
-62 3 -82 15 -86 13 -5 13 -8 -1 -21 -19 -20 -141 -24 -159 -6 -10 10 -14 10
-17 1 -3 -8 -11 -7 -28 5 -14 9 -19 17 -12 17 6 0 12 7 12 15 0 8 3 15 8 15 4
0 7 30 6 67 -1 75 6 82 71 78 17 -1 47 -3 68 -4z m-4226 -78 c-3 -10 -5 -2 -5
17 0 19 2 27 5 18 2 -10 2 -26 0 -35z m2733 -93 c0 -5 -7 -7 -15 -4 -8 4 -15
8 -15 10 0 2 7 4 15 4 8 0 15 -4 15 -10z m235 0 c-3 -5 -10 -10 -16 -10 -5 0
-9 5 -9 10 0 6 7 10 16 10 8 0 12 -4 9 -10z m642 -12 c-3 -8 -6 -5 -6 6 -1 11
2 17 5 13 3 -3 4 -12 1 -19z m-1630 -34 c-3 -3 -12 -4 -19 -1 -8 3 -5 6 6 6
11 1 17 -2 13 -5z m256 -1 c-7 -2 -19 -2 -25 0 -7 3 -2 5 12 5 14 0 19 -2 13
-5z m130 0 c-7 -2 -19 -2 -25 0 -7 3 -2 5 12 5 14 0 19 -2 13 -5z m60 0 c-7
-2 -21 -2 -30 0 -10 3 -4 5 12 5 17 0 24 -2 18 -5z m150 0 c-7 -2 -19 -2 -25
0 -7 3 -2 5 12 5 14 0 19 -2 13 -5z m85 0 c-10 -2 -26 -2 -35 0 -10 3 -2 5 17
5 19 0 27 -2 18 -5z m169 1 c-3 -3 -12 -4 -19 -1 -8 3 -5 6 6 6 11 1 17 -2 13
-5z m76 -1 c-7 -2 -19 -2 -25 0 -7 3 -2 5 12 5 14 0 19 -2 13 -5z m80 0 c-7
-2 -21 -2 -30 0 -10 3 -4 5 12 5 17 0 24 -2 18 -5z m150 0 c-7 -2 -19 -2 -25
0 -7 3 -2 5 12 5 14 0 19 -2 13 -5z m550 0 c-13 -2 -33 -2 -45 0 -13 2 -3 4
22 4 25 0 35 -2 23 -4z m-4453 -83 c25 -25 25 -41 0 -73 -17 -21 -18 -26 -5
-31 29 -11 15 -21 -30 -21 -25 0 -45 2 -45 5 0 2 19 22 42 43 41 38 42 38 22
58 -23 23 -50 17 -57 -12 -6 -22 -27 -26 -27 -4 0 22 37 55 60 55 11 0 29 -9
40 -20z m670 0 c0 -5 -8 -10 -17 -10 -15 0 -16 2 -3 10 19 12 20 12 20 0z
m6308 -2 c19 -19 14 -59 -10 -85 l-21 -23 21 0 c43 0 21 -17 -23 -18 -25 -1
-45 0 -45 3 0 2 18 21 41 42 29 27 38 43 34 56 -10 24 -51 21 -69 -5 -21 -30
-33 -15 -12 17 18 27 63 34 84 13z m-5115 -91 c-10 -103 -22 -111 -22 -15 -1
73 1 86 14 82 11 -5 13 -19 8 -67z m30 43 c3 -11 1 -23 -4 -26 -5 -3 -9 6 -9
20 0 31 6 34 13 6z m114 14 c-3 -3 -12 -4 -19 -1 -8 3 -5 6 6 6 11 1 17 -2 13
-5z m20 -56 c-2 -13 -4 -3 -4 22 0 25 2 35 4 23 2 -13 2 -33 0 -45z m493 1 c0
-37 -4 -58 -10 -54 -5 3 -10 31 -10 61 0 30 5 54 10 54 6 0 10 -27 10 -61z
m30 46 c0 -8 5 -15 10 -15 7 0 7 -6 1 -18 -7 -13 -6 -23 2 -32 9 -10 9 -11 0
-6 -10 5 -13 -3 -13 -30 0 -58 -7 -37 -14 44 -4 46 -2 72 4 72 5 0 10 -7 10
-15z m130 11 c0 -3 -4 -8 -10 -11 -5 -3 -10 -1 -10 4 0 6 5 11 10 11 6 0 10
-2 10 -4z m17 -33 c-3 -10 -5 -4 -5 12 0 17 2 24 5 18 2 -7 2 -21 0 -30z m493
-47 c0 -65 -4 -88 -16 -101 -12 -11 -20 -13 -27 -6 -6 6 -22 11 -37 12 -20 0
-17 3 15 13 l40 12 3 77 c4 104 22 99 22 -7z m30 69 c0 -8 6 -15 14 -15 16 0
13 -42 -10 -114 l-13 -41 0 40 c-1 22 -4 64 -7 93 -5 36 -3 52 5 52 6 0 11 -7
11 -15z m149 -57 c-1 -61 -2 -67 -9 -38 -5 19 -6 38 -4 42 2 3 0 9 -6 13 -6 4
-10 -10 -10 -36 0 -61 -11 -41 -17 30 -5 60 -5 61 21 61 26 0 26 -1 25 -72z
m491 15 c0 -32 -5 -65 -10 -73 -7 -10 -10 7 -10 58 0 41 4 72 10 72 6 0 10
-26 10 -57z m31 40 c2 -32 2 -58 0 -78 -3 -17 -4 -17 -11 5 -12 36 -12 90 0
90 6 0 11 -8 11 -17z m149 -45 c0 -71 -9 -75 -11 -5 -3 61 -19 61 -21 0 l-1
-48 -6 50 c-8 59 -6 65 20 65 17 0 19 -7 19 -62z m507 0 c-2 -13 -4 -3 -4 22
0 25 2 35 4 23 2 -13 2 -33 0 -45z m152 -15 c-1 -43 -3 -70 -6 -60 -2 9 -8 17
-11 17 -4 0 -7 24 -6 53 1 63 1 67 14 67 6 0 10 -32 9 -77z m-3946 52 c4 -8 3
-16 -1 -19 -4 -3 -9 4 -9 15 -2 23 3 25 10 4z m3764 -37 c-2 -13 -4 -5 -4 17
-1 22 1 32 4 23 2 -10 2 -28 0 -40z m-1837 23 c0 -6 -4 -13 -10 -16 -5 -3 -10
1 -10 9 0 9 5 16 10 16 6 0 10 -4 10 -9z m-160 -101 c0 -5 -5 -10 -11 -10 -5
0 -7 5 -4 10 3 6 8 10 11 10 2 0 4 -4 4 -10z m-1757 -132 c-2 -141 -3 -148
-20 -148 -9 0 -11 5 -7 12 13 21 15 108 3 108 -6 0 -9 6 -6 14 3 8 1 17 -6 20
-7 2 -4 5 6 5 19 1 23 21 5 39 -8 8 -8 15 1 26 6 7 11 18 10 22 -3 16 1 25 9
20 4 -2 6 -55 5 -118z m-126 45 c-2 -16 -4 -5 -4 22 0 28 2 40 4 28 2 -13 2
-35 0 -50z m1193 57 c0 -5 -4 -10 -10 -10 -5 0 -10 5 -10 10 0 6 5 10 10 10 6
0 10 -4 10 -10z m663 3 c-7 -2 -21 -2 -30 0 -10 3 -4 5 12 5 17 0 24 -2 18 -5z
m3296 -75 c-3 -124 -17 -143 -18 -25 -1 72 2 106 9 102 6 -4 10 -37 9 -77z
m-1972 66 c-3 -3 -12 -4 -19 -1 -8 3 -5 6 6 6 11 1 17 -2 13 -5z m-819 -11
c-15 -2 -42 -2 -60 0 -18 2 -6 4 27 4 33 0 48 -2 33 -4z m125 -30 c-7 -2 -21
-2 -30 0 -10 3 -4 5 12 5 17 0 24 -2 18 -5z m165 0 c-21 -2 -57 -2 -80 0 -24
2 -7 4 37 4 44 0 63 -2 43 -4z m-2623 -12 c-3 -5 -1 -12 5 -16 5 -3 10 -14 10
-23 0 -12 -4 -10 -14 8 -12 23 -12 40 0 40 3 0 3 -4 -1 -9z m2238 2 c-13 -2
-35 -2 -50 0 -16 2 -5 4 22 4 28 0 40 -2 28 -4z m100 0 c-13 -2 -33 -2 -45 0
-13 2 -3 4 22 4 25 0 35 -2 23 -4z m520 0 c-13 -2 -33 -2 -45 0 -13 2 -3 4 22
4 25 0 35 -2 23 -4z m110 0 c-7 -2 -21 -2 -30 0 -10 3 -4 5 12 5 17 0 24 -2
18 -5z m50 0 c-7 -2 -19 -2 -25 0 -7 3 -2 5 12 5 14 0 19 -2 13 -5z m-2976
-25 c-3 -8 -6 -5 -6 6 -1 11 2 17 5 13 3 -3 4 -12 1 -19z m6255 -28 c18 0 19
-2 7 -16 -11 -13 -10 -17 4 -25 23 -13 22 -62 -3 -84 -17 -15 -24 -16 -49 -6
-16 7 -31 21 -34 32 -7 25 7 24 25 -2 10 -16 20 -20 36 -15 29 10 31 56 2 63
-15 4 -19 11 -15 24 5 15 1 19 -15 19 -12 0 -18 4 -15 11 4 6 14 8 22 5 8 -3
24 -6 35 -6z m-6976 -25 c-3 -8 2 -28 12 -45 18 -32 12 -53 -21 -74 -24 -15
-71 4 -75 32 -2 12 1 22 7 22 6 0 11 -6 11 -14 0 -23 41 -31 56 -11 15 21 8
42 -16 50 -11 4 -17 12 -13 21 3 9 -2 14 -16 14 -12 0 -21 5 -21 10 0 6 18 10
41 10 32 0 40 -3 35 -15z m1880 -41 c-3 -9 -6 -42 -6 -75 0 -33 -4 -59 -10
-59 -6 0 -10 32 -10 75 0 62 3 75 16 75 11 0 14 -5 10 -16z m39 4 c3 -7 -2
-35 -9 -63 l-14 -50 -1 63 c-1 36 3 62 9 62 6 0 13 -6 15 -12z m105 -25 c0
-58 -16 -73 -24 -23 -7 42 -2 60 15 60 5 0 9 -17 9 -37z m30 -5 c0 -24 -5 -50
-10 -58 -7 -11 -10 2 -10 43 0 31 4 57 10 57 6 0 10 -19 10 -42z m523 33 c13
-1 5 -97 -10 -117 -12 -16 -13 -14 -14 22 -1 38 -2 38 -9 9 -7 -29 -8 -29 -10
-5 -5 46 -7 85 -3 92 2 3 11 5 21 3 9 -2 21 -4 25 -4z m145 -44 c2 -26 -2 -55
-7 -64 -8 -14 -11 -4 -12 42 -2 50 -3 53 -6 18 -5 -48 -22 -59 -24 -15 -1 15
-2 34 -3 42 -1 19 12 29 33 26 12 -2 17 -16 19 -49z m541 -14 c-1 -38 -7 -68
-15 -74 -8 -6 -12 -15 -9 -19 3 -5 1 -11 -5 -15 -5 -3 -10 -5 -10 -3 0 2 -3
37 -7 78 -3 41 -7 77 -9 79 -2 2 -4 -30 -4 -72 0 -42 -3 -78 -7 -80 -5 -3 -7
34 -5 82 l3 87 35 0 35 -1 -2 -62z m125 51 c8 -21 6 -105 -3 -128 -7 -19 -8
-18 -15 5 -4 14 -9 19 -13 12 -12 -30 -20 -8 -22 57 -2 68 -1 70 22 70 14 0
28 -7 31 -16z m516 6 c0 -5 6 -7 13 -4 11 4 13 -4 7 -39 -3 -25 -6 -51 -4 -58
1 -8 -5 -20 -12 -27 -12 -11 -14 -9 -14 8 0 27 -18 26 -23 -2 -2 -13 -5 12 -6
55 -1 71 1 77 19 77 11 0 20 -4 20 -10z m158 -65 c2 -38 -2 -73 -8 -79 -7 -7
-10 3 -11 35 -1 31 -3 37 -7 21 -12 -41 -23 -29 -27 27 -5 64 -3 68 27 66 21
-1 23 -7 26 -70z m502 60 c0 -18 16 -20 23 -2 3 6 3 -8 1 -33 -3 -25 -8 -52
-11 -60 -4 -8 -7 -18 -7 -22 -3 -19 -16 -18 -16 2 0 12 -5 40 -11 61 -12 39
-7 69 11 69 5 0 10 -7 10 -15z m160 5 c0 -5 -8 -11 -17 -11 -17 -1 -17 -2 0
-6 20 -5 24 -71 6 -104 -15 -30 -41 -7 -29 26 5 13 7 25 5 27 -7 7 -14 61 -9
70 7 11 44 10 44 -2z m490 -6 c0 -8 -5 -12 -10 -9 -6 4 -8 11 -5 16 9 14 15
11 15 -7z m-4497 -87 c7 3 10 4 7 0 -3 -3 -8 -5 -11 -4 -3 1 -13 -4 -22 -12
-15 -12 -17 -11 -17 3 0 10 5 14 10 11 6 -3 10 0 11 7 0 10 2 10 6 0 2 -6 10
-9 16 -5z m44 -50 c-4 -30 -7 -144 -7 -254 -1 -175 -4 -201 -17 -199 -8 1 -20
11 -25 21 -10 17 -12 16 -24 -6 -10 -19 -13 -20 -14 -6 0 10 -8 17 -21 17 -11
0 -17 -4 -14 -10 3 -5 0 -10 -9 -10 -12 0 -14 28 -11 188 1 103 6 206 10 230
l8 43 48 -5 c27 -3 48 -2 48 2 -4 25 3 42 17 42 14 0 15 -8 11 -53z m5063 3
c5 0 7 -7 4 -15 -4 -10 0 -15 12 -15 16 0 17 -2 4 -10 -12 -8 -11 -10 8 -10
14 0 22 6 23 18 1 16 2 16 6 0 2 -10 9 -18 15 -18 5 0 8 6 5 14 -4 9 0 13 11
12 9 -2 17 -7 17 -12 0 -5 3 -13 7 -19 6 -10 13 -258 9 -357 -1 -41 -3 -46
-21 -41 -11 3 -20 10 -20 15 0 5 -4 6 -10 3 -5 -3 -10 2 -11 12 0 14 -2 14 -9
-4 -5 -13 -12 -23 -15 -23 -4 0 -4 4 -1 9 4 5 0 11 -6 14 -7 2 -18 -10 -25
-27 -9 -26 -12 3 -13 164 -1 107 -3 229 -5 270 -1 41 -1 63 2 48 2 -16 8 -28
13 -28z m-4002 -57 c-10 -2 -26 -2 -35 0 -10 3 -2 5 17 5 19 0 27 -2 18 -5z
m125 0 c-7 -2 -21 -2 -30 0 -10 3 -4 5 12 5 17 0 24 -2 18 -5z m44 1 c-3 -3
-12 -4 -19 -1 -8 3 -5 6 6 6 11 1 17 -2 13 -5z m201 -11 c-10 -2 -26 -2 -35 0
-10 3 -2 5 17 5 19 0 27 -2 18 -5z m95 0 c-7 -2 -21 -2 -30 0 -10 3 -4 5 12 5
17 0 24 -2 18 -5z m110 0 c-7 -2 -19 -2 -25 0 -7 3 -2 5 12 5 14 0 19 -2 13
-5z m85 0 c-10 -2 -28 -2 -40 0 -13 2 -5 4 17 4 22 1 32 -1 23 -4z m170 0
c-15 -2 -42 -2 -60 0 -18 2 -6 4 27 4 33 0 48 -2 33 -4z m95 0 c-13 -2 -33 -2
-45 0 -13 2 -3 4 22 4 25 0 35 -2 23 -4z m70 0 c-7 -2 -21 -2 -30 0 -10 3 -4
5 12 5 17 0 24 -2 18 -5z m65 0 c-10 -2 -26 -2 -35 0 -10 3 -2 5 17 5 19 0 27
-2 18 -5z m85 0 c-13 -2 -33 -2 -45 0 -13 2 -3 4 22 4 25 0 35 -2 23 -4z m80
0 c-7 -2 -21 -2 -30 0 -10 3 -4 5 12 5 17 0 24 -2 18 -5z m290 0 c-51 -2 -135
-2 -185 0 -51 1 -10 3 92 3 102 0 143 -2 93 -3z m494 1 c-3 -3 -12 -4 -19 -1
-8 3 -5 6 6 6 11 1 17 -2 13 -5z m-3867 -48 c0 -2 -7 -20 -15 -39 -19 -46 -19
-47 5 -47 15 0 20 7 20 25 0 14 5 25 10 25 6 0 10 -10 10 -23 0 -13 5 -28 12
-35 9 -9 9 -12 0 -12 -7 0 -12 -7 -12 -15 0 -19 -16 -20 -23 -2 -3 9 -16 12
-37 9 -31 -4 -32 -3 -27 20 11 44 37 98 47 98 6 0 10 -2 10 -4z m6990 0 c0 -2
-7 -20 -15 -39 -19 -47 -19 -49 8 -45 16 2 21 9 19 25 -2 12 2 24 8 28 6 4 10
-6 10 -24 0 -21 5 -31 15 -31 12 0 12 -3 -2 -18 -10 -10 -19 -14 -21 -10 -2 4
-19 8 -38 8 -20 0 -34 5 -34 12 0 21 32 98 41 98 5 0 9 -2 9 -4z m-5077 -123
c-6 -76 -7 -78 -22 -68 -6 3 -11 35 -11 71 0 57 2 64 20 64 18 0 19 -5 13 -67z
m27 2 l-7 -50 -2 60 c0 34 3 55 8 50 4 -6 5 -32 1 -60z m139 15 l-2 -45 -7 40
c-5 30 -8 34 -10 15 -1 -14 -2 -30 -1 -36 1 -7 -4 -14 -11 -17 -9 -3 -13 7
-12 37 2 56 1 55 24 53 17 -1 20 -8 19 -47z m496 -24 c-9 -84 -15 -83 -15 3 0
49 3 70 11 66 7 -5 8 -29 4 -69z m41 52 c4 -6 3 -8 -4 -4 -7 4 -12 -10 -15
-41 l-3 -48 -2 53 c-2 49 8 66 24 40z m114 -17 c0 -17 -4 -33 -10 -36 -5 -3
-10 3 -10 14 0 10 -3 26 -6 35 -4 11 -1 16 10 16 11 0 16 -9 16 -29z m17 -8
c-3 -10 -5 -4 -5 12 0 17 2 24 5 18 2 -7 2 -21 0 -30z m553 22 c0 -7 -3 -15
-7 -19 -4 -4 -9 -19 -10 -34 -1 -15 -4 -36 -7 -47 -2 -11 -5 -22 -5 -25 -3
-15 -21 30 -22 55 -2 23 -4 19 -9 -15 -6 -43 -6 -41 -11 28 l-4 73 38 -3 c20
-1 37 -7 37 -13z m120 -57 c0 -71 -5 -87 -12 -36 -2 15 -7 30 -11 34 -4 4 -7
-3 -7 -16 0 -37 -7 -19 -14 38 -7 51 -6 52 19 52 24 0 25 -2 25 -72z m537 59
c1 -2 -4 -27 -11 -57 -12 -53 -13 -54 -20 -25 -13 51 -14 51 -16 0 -2 -67 -18
-31 -19 43 l-1 52 32 -5 c18 -4 33 -7 35 -8z m131 -52 l-1 -60 -7 55 c-6 48
-16 46 -12 -2 1 -10 -2 -18 -7 -18 -9 0 -20 77 -13 85 2 2 13 3 23 2 17 -1 19
-9 17 -62z m661 -12 c-1 -77 -1 -78 -15 -45 -8 18 -12 37 -9 42 3 4 0 21 -5
36 -8 21 -8 29 2 36 25 15 28 7 27 -69z m498 57 c1 -11 -2 -22 -8 -25 -5 -4
-9 5 -9 19 0 30 15 35 17 6z m-1710 -12 c-3 -8 -6 -5 -6 6 -1 11 2 17 5 13 3
-3 4 -12 1 -19z m1082 -21 c-11 -63 -29 -69 -30 -11 l-2 49 -7 -40 -7 -40 -2
42 c-1 40 0 42 27 40 27 -2 28 -4 21 -40z m-3182 -143 c-3 -3 -12 -4 -19 -1
-8 3 -5 6 6 6 11 1 17 -2 13 -5z m1160 0 c-3 -3 -12 -4 -19 -1 -8 3 -5 6 6 6
11 1 17 -2 13 -5z m240 0 c-3 -3 -12 -4 -19 -1 -8 3 -5 6 6 6 11 1 17 -2 13
-5z m341 -1 c-10 -2 -26 -2 -35 0 -10 3 -2 5 17 5 19 0 27 -2 18 -5z m80 0
c-10 -2 -28 -2 -40 0 -13 2 -5 4 17 4 22 1 32 -1 23 -4z m49 1 c-3 -3 -12 -4
-19 -1 -8 3 -5 6 6 6 11 1 17 -2 13 -5z m-3262 -84 c-3 -5 -17 -10 -31 -10
-13 0 -24 -4 -24 -10 0 -5 10 -10 23 -10 45 0 62 -46 30 -82 -19 -22 -42 -23
-69 -4 -24 18 -13 31 14 17 28 -15 54 -3 50 23 -2 16 -11 22 -35 24 -29 3 -33
7 -33 33 0 27 2 29 41 29 24 0 38 -4 34 -10z m6980 -20 c-3 -5 -17 -10 -31
-10 -34 0 -30 -16 6 -23 38 -8 51 -48 25 -77 -21 -24 -44 -25 -71 -6 -24 18
-13 32 13 15 16 -10 23 -8 40 6 29 25 18 45 -23 45 -31 0 -34 3 -34 30 0 28 2
30 41 30 24 0 38 -4 34 -10z m-5111 -32 c-1 -13 -3 -45 -3 -72 -1 -65 -9 -56
-11 14 -3 70 -2 80 8 80 5 0 8 -10 6 -22z m30 -15 c-9 -52 -14 -54 -14 -5 0
23 5 42 10 42 7 0 8 -14 4 -37z m146 -30 c0 -80 -7 -80 -12 -1 -3 64 -16 65
-19 1 -4 -54 -15 -48 -14 9 0 24 -4 46 -10 50 -5 4 5 8 23 8 l32 0 0 -67z
m487 -40 c-2 -21 -4 -4 -4 37 0 41 2 58 4 38 2 -21 2 -55 0 -75z m34 95 c2
-31 -4 -83 -12 -102 -6 -15 -8 -1 -7 47 1 37 5 67 10 67 4 0 8 -6 9 -12z m117
-34 c0 -30 -4 -41 -9 -33 -12 19 -11 79 1 79 5 0 9 -21 8 -46z m32 6 c0 -22
-4 -40 -10 -40 -5 0 -10 18 -10 40 0 22 5 40 10 40 6 0 10 -18 10 -40z m513
28 c4 -10 8 -9 17 2 9 12 10 -1 7 -54 -3 -42 -10 -72 -18 -77 -17 -10 -18 -10
-21 34 -3 50 -16 47 -21 -5 -2 -26 -4 -12 -5 35 -2 70 0 77 17 77 11 0 22 -6
24 -12z m157 -58 c0 -75 -11 -90 -28 -37 l-10 32 -1 -29 c-2 -44 -12 -24 -17
33 -6 61 -1 71 32 71 23 0 24 -2 24 -70z m1326 13 c1 -27 -5 -57 -12 -67 -12
-17 -13 -17 -18 5 -16 77 -17 102 -4 110 24 16 33 3 34 -48z m-820 31 c-4 -12
-2 -15 9 -10 12 4 14 0 11 -19 -8 -46 -17 -65 -27 -59 -5 3 -7 10 -4 15 4 5 3
14 -1 21 -5 8 -10 6 -15 -8 -5 -13 -8 -4 -8 29 -1 41 2 47 20 47 15 0 19 -4
15 -16z m133 -11 c-1 -16 -5 -39 -9 -53 -6 -20 -8 -14 -9 28 -1 28 3 52 9 52
6 0 10 -12 9 -27z m30 -45 c0 -50 -3 -67 -9 -53 -12 28 -12 125 0 125 6 0 10
-30 9 -72z m478 25 c-3 -10 -5 -2 -5 17 0 19 2 27 5 18 2 -10 2 -26 0 -35z
m28 37 c-3 -5 -1 -10 4 -10 6 0 11 5 11 12 0 6 3 9 6 5 4 -3 3 -14 -1 -24 -9
-20 -11 -30 -13 -55 -4 -39 -19 -15 -21 32 -1 31 2 50 9 50 6 0 8 -4 5 -10z
m-3922 -181 c3 -27 8 -43 15 -41 7 1 12 -2 12 -8 0 -5 -4 -10 -9 -10 -13 0
-20 -39 -8 -43 6 -2 3 -6 -6 -10 -15 -6 -17 3 -17 80 0 90 8 108 13 32z m117
-143 c-8 -8 -10 -7 -5 5 3 9 -1 22 -9 29 -9 7 -13 16 -10 21 3 5 0 9 -5 9 -6
0 -10 11 -9 24 1 14 5 23 9 20 10 -6 19 24 13 41 -4 8 0 23 7 32 12 14 14 3
17 -77 2 -58 -1 -97 -8 -104z m5060 88 c0 -61 -1 -64 -22 -60 -14 2 -21 9 -19
17 3 8 4 42 4 77 0 60 1 62 18 46 15 -13 19 -31 19 -80z m-4473 60 c-3 -3 -12
-4 -19 -1 -8 3 -5 6 6 6 11 1 17 -2 13 -5z m71 -1 c-10 -2 -26 -2 -35 0 -10 3
-2 5 17 5 19 0 27 -2 18 -5z m385 0 c-7 -2 -19 -2 -25 0 -7 3 -2 5 12 5 14 0
19 -2 13 -5z m-830 -10 c-18 -2 -48 -2 -65 0 -18 2 -4 4 32 4 36 0 50 -2 33
-4z m-998 -73 c-4 -6 5 -20 19 -31 33 -26 36 -73 5 -89 -30 -17 -62 -8 -78 22
-14 24 -13 29 12 67 15 23 32 41 38 41 5 0 7 -5 4 -10z m6990 -13 c-3 -6 5
-17 17 -22 35 -15 37 -69 4 -91 -24 -15 -28 -15 -51 0 -31 21 -33 57 -3 96 22
30 41 40 33 17z m-5091 -79 c-10 -96 -23 -105 -24 -15 0 62 3 77 15 77 12 0
14 -11 9 -62z m28 16 c-2 -55 -12 -54 -12 1 0 27 3 45 7 42 3 -4 6 -23 5 -43z
m117 -1 c-1 -51 -2 -50 -18 10 -8 30 -7 37 5 37 10 0 14 -13 13 -47z m28 -50
c-2 -21 -4 -6 -4 32 0 39 2 55 4 38 2 -18 2 -50 0 -70z m492 37 c-1 -33 -6
-60 -11 -60 -4 0 -8 27 -8 60 0 35 4 60 11 60 6 0 9 -23 8 -60z m27 20 c-3
-56 -16 -62 -16 -7 0 26 4 47 9 47 4 0 8 -18 7 -40z m124 3 c0 -43 -7 -41 -15
5 -3 19 -1 32 5 32 5 0 10 -16 10 -37z m17 -30 c-2 -16 -4 -5 -4 22 0 28 2 40
4 28 2 -13 2 -35 0 -50z m528 57 c-3 -5 -1 -10 5 -10 11 0 10 -33 -2 -92 -7
-32 -18 -32 -18 0 0 45 -18 40 -23 -5 -2 -21 -4 -3 -5 40 -2 76 -2 77 24 77
14 0 23 -4 19 -10z m151 -17 c-2 -16 -5 -50 -5 -77 -1 -56 -9 -58 -13 -3 -2
43 -17 50 -19 10 l-1 -28 -8 30 c-4 17 -8 45 -9 63 -1 29 2 32 29 32 28 0 30
-3 26 -27z m514 12 c0 -9 -7 -12 -17 -9 -14 4 -13 1 4 -14 21 -18 25 -43 10
-59 -4 -4 -11 4 -15 17 -6 22 -7 21 -13 -15 -5 -34 -6 -31 -8 25 -1 59 1 66
19 67 11 1 20 -4 20 -12z m159 -75 c1 -39 -2 -51 -9 -40 -5 8 -9 42 -9 75 1
77 17 45 18 -35z m-29 45 c0 -19 -4 -35 -8 -35 -4 0 -9 16 -10 35 -2 19 2 35
8 35 5 0 10 -16 10 -35z m535 25 c-3 -5 -1 -10 5 -10 6 0 8 -10 4 -27 -10 -44
-24 -51 -24 -12 0 25 -3 30 -10 19 -8 -12 -10 -9 -10 13 0 21 5 27 21 27 11 0
17 -4 14 -10z m154 -40 c-2 -27 -7 -50 -11 -50 -5 0 -7 -4 -3 -9 3 -5 1 -12
-4 -15 -10 -6 -21 41 -21 90 0 28 4 34 20 34 19 0 21 -6 19 -50z m-3971 -138
c-4 -42 -8 -193 -10 -334 -2 -142 -6 -258 -10 -258 -4 0 -6 -6 -4 -12 1 -7 1
-10 -1 -5 -3 4 -10 4 -16 0 -6 -4 -8 0 -4 10 8 22 -5 21 -51 -2 -35 -18 -38
-23 -41 -67 -4 -83 -11 -62 -12 37 -1 52 -2 141 -3 199 -1 119 5 313 12 379
l4 43 39 -5 c22 -3 39 -1 39 3 0 5 11 7 23 4 22 -4 24 -1 22 44 -1 57 5 84 15
58 3 -10 3 -52 -2 -94z m5076 -23 c-2 -4 3 -9 11 -13 8 -3 15 -2 15 3 0 9 51
8 67 -2 6 -4 14 -1 16 5 3 7 6 -32 6 -87 0 -64 -3 -95 -8 -85 -6 8 -7 18 -4
24 3 5 1 6 -6 2 -6 -4 -9 -11 -6 -16 3 -5 -4 -11 -15 -15 -11 -3 -20 -13 -20
-20 0 -8 -4 -16 -9 -20 -6 -3 -8 4 -6 15 2 11 0 20 -5 20 -15 0 -21 -18 -8
-23 8 -3 6 -6 -4 -6 -10 -1 -18 -5 -18 -10 0 -4 12 -7 26 -5 18 2 27 -4 33
-19 l8 -22 7 23 c4 12 12 19 18 16 7 -4 8 -2 4 5 -6 9 -11 9 -22 0 -10 -8 -14
-8 -14 0 0 6 4 11 10 11 6 0 9 3 8 8 -2 4 2 7 7 7 6 0 9 -3 8 -7 -2 -5 1 -8 6
-8 5 0 11 5 13 12 2 6 5 -53 7 -131 1 -85 -2 -141 -7 -137 -11 6 -8 -37 4 -56
6 -10 5 -11 -8 -1 -8 7 -18 10 -21 6 -4 -3 -9 2 -13 11 -3 9 -11 16 -16 16 -6
0 -5 -6 2 -15 10 -12 9 -16 -4 -21 -9 -3 -23 -1 -31 6 -9 7 -19 10 -22 6 -4
-4 -1 -11 7 -17 13 -8 13 -10 1 -18 -8 -5 -12 -15 -9 -23 3 -8 0 -22 -8 -32
-7 -11 -11 -23 -7 -29 3 -6 1 -7 -6 -3 -6 4 -9 12 -6 17 7 11 7 546 0 639 -5
63 -5 64 9 30 7 -19 12 -38 10 -41z m-6164 -86 c0 -14 -41 -118 -51 -127 -13
-14 -11 5 6 54 20 57 20 60 -15 60 -16 0 -30 5 -30 10 0 6 20 10 45 10 25 0
45 -3 45 -7z m6958 -55 c-11 -35 -24 -67 -29 -72 -18 -19 -17 1 2 54 10 30 19
56 19 57 0 2 -16 3 -35 3 -19 0 -35 5 -35 10 0 6 22 10 49 10 l50 0 -21 -62z
m-4945 36 c33 -5 37 -9 37 -35 0 -16 -5 -29 -12 -29 -6 0 -9 -3 -5 -6 3 -4 -1
-20 -9 -37 -13 -24 -13 -31 -3 -38 24 -15 -42 -31 -98 -24 l-53 6 0 78 c0 43
2 80 4 82 8 8 99 10 139 3z m678 1 c23 -5 38 -35 17 -35 -4 0 -8 -5 -8 -11 0
-5 5 -7 10 -4 14 8 13 1 -5 -42 -19 -46 -19 -53 3 -53 14 0 15 -2 2 -10 -8 -5
-50 -10 -92 -10 l-78 0 0 78 c0 43 2 81 4 83 7 7 119 10 147 4z m678 -67 c-1
-40 -4 -79 -7 -85 -5 -16 -148 -18 -157 -3 -3 6 -1 10 4 10 14 0 14 57 1 65
-17 10 -12 75 5 75 8 0 15 -8 16 -17 0 -14 2 -13 9 5 8 19 16 22 70 22 l61 0
-2 -72z m677 61 c3 -6 3 -44 -1 -85 l-7 -74 -84 0 c-75 0 -107 10 -71 23 10 3
10 9 0 26 -7 11 -13 41 -13 65 0 26 5 46 13 49 24 10 156 7 163 -4z m520 -25
c-3 -8 -1 -14 4 -14 6 0 10 9 10 20 0 18 7 20 65 20 l65 0 -1 -80 c-1 -44 -6
-83 -11 -86 -5 -3 -37 -3 -71 0 l-62 7 -1 40 c-1 22 -7 46 -13 52 -12 12 -15
50 -5 60 11 11 26 -4 20 -19z m641 -51 c-2 -16 -4 -3 -4 27 0 30 2 43 4 28 2
-16 2 -40 0 -55z m179 50 c-2 -16 -7 -54 -11 -85 l-8 -58 -71 0 -71 0 1 78 c0
42 1 80 2 83 1 4 38 7 82 8 l80 1 -4 -27z m-1909 -159 c-3 -3 -12 -4 -19 -1
-8 3 -5 6 6 6 11 1 17 -2 13 -5z m-3143 -152 c7 -44 6 -56 -7 -70 -34 -34
-105 17 -79 58 6 11 12 28 12 38 0 26 10 33 40 30 22 -3 26 -10 34 -56z m6971
44 c11 -8 16 -20 12 -29 -3 -9 -2 -19 3 -22 15 -9 12 -52 -4 -68 -21 -21 -65
-9 -79 20 -8 17 -7 27 1 35 7 7 12 21 12 33 0 20 17 45 30 45 3 0 15 -6 25
-14z m-5095 -70 c-1 -28 -7 -62 -15 -76 -13 -23 -14 -19 -15 57 0 69 2 81 15
77 11 -4 15 -21 15 -58z m669 -1 c-1 -35 -6 -62 -10 -59 -4 2 -12 -3 -17 -11
-5 -11 -9 9 -10 59 -2 71 -1 76 18 76 19 0 21 -5 19 -65z m662 48 c2 -43 -3
-109 -10 -122 -9 -15 -22 62 -16 94 2 11 4 26 4 33 1 19 21 14 22 -5z m26 -75
c-2 -18 -4 -4 -4 32 0 36 2 50 4 33 2 -18 2 -48 0 -65z m120 15 c-2 -16 -4 -3
-4 27 0 30 2 43 4 28 2 -16 2 -40 0 -55z m20 0 c-2 -16 -4 -3 -4 27 0 30 2 43
4 28 2 -16 2 -40 0 -55z m502 29 c-1 -20 -5 -48 -9 -62 -8 -24 -8 -24 -10 -2
-3 24 -3 73 -1 98 2 32 21 1 20 -34z m-1842 -14 c-2 -13 -4 -5 -4 17 -1 22 1
32 4 23 2 -10 2 -28 0 -40z m1868 18 c0 -49 -11 -53 -13 -6 -2 22 1 40 6 40 4
0 8 -15 7 -34z m135 19 c0 -8 -2 -15 -4 -15 -2 0 -6 7 -10 15 -3 8 -1 15 4 15
6 0 10 -7 10 -15z m505 -40 c-3 -77 -15 -82 -15 -7 0 34 4 62 8 62 5 0 8 -25
7 -55z m164 -17 c-1 -55 -3 -66 -9 -43 -11 45 -11 115 0 115 6 0 10 -30 9 -72z
m1176 -78 c3 -5 1 -10 -4 -10 -6 0 -11 5 -11 10 0 6 2 10 4 10 3 0 8 -4 11
-10z m-5185 -20 c0 -5 -2 -10 -4 -10 -3 0 -8 5 -11 10 -3 6 -1 10 4 10 6 0 11
-4 11 -10z m-26 -8 c2 -4 -4 -8 -14 -8 -10 0 -16 4 -14 8 3 4 9 8 14 8 5 0 11
-4 14 -8z m-674 -141 c5 -11 10 -28 10 -37 0 -24 -42 -84 -58 -84 -7 0 -10 5
-7 10 4 6 -5 20 -19 31 -30 23 -33 54 -9 81 22 24 69 24 83 -1z m3242 -6 c1
-11 6 -22 9 -25 3 -3 1 -25 -5 -50 -10 -44 -10 -44 -14 -12 -2 17 -7 32 -13
32 -5 0 -9 5 -9 11 0 5 5 7 10 4 6 -3 10 1 10 10 0 9 -4 13 -10 10 -5 -3 -10
-1 -10 4 0 6 5 11 10 11 6 0 10 8 10 17 0 21 7 14 12 -12z m156 -43 c2 -56 0
-69 -13 -69 -12 0 -15 13 -15 62 0 57 5 75 19 75 3 0 7 -31 9 -68z m-1521 -49
c-2 -21 -4 -4 -4 37 0 41 2 58 4 38 2 -21 2 -55 0 -75z m192 39 c1 -18 -3 -31
-7 -28 -5 3 -9 26 -10 53 -1 35 1 43 8 28 5 -11 9 -35 9 -53z m482 2 c-2 -82
-11 -81 -11 1 0 38 3 65 6 62 4 -3 6 -32 5 -63z m183 -3 c-5 -42 -14 -54 -14
-19 0 14 -3 41 -6 59 -6 32 -5 33 9 14 9 -12 13 -34 11 -54z m1169 32 c-3 -7
0 -13 5 -13 8 0 8 -9 1 -30 -19 -54 -27 -27 -20 70 1 13 3 13 10 1 5 -8 7 -20
4 -28z m167 -63 l-5 -55 -8 40 c-4 22 -7 58 -7 80 0 39 0 39 13 15 9 -16 11
-44 7 -80z m504 46 c1 -20 -2 -36 -6 -36 -5 0 -8 19 -8 42 0 50 11 45 14 -6z
m138 12 l1 -33 4 33 c2 17 8 32 14 32 11 0 10 -95 -1 -130 -7 -21 -8 -18 -10
20 -2 41 -3 42 -9 15 l-7 -30 -7 34 c-10 48 -9 91 3 91 6 0 11 -15 12 -32z
m2284 -3 c20 -30 12 -57 -27 -90 -34 -28 -59 -34 -39 -10 11 13 10 18 -8 31
-12 8 -22 26 -22 39 0 53 67 75 96 30z m-5089 -17 c-3 -7 -5 -2 -5 12 0 14 2
19 5 13 2 -7 2 -19 0 -25z m1450 -15 c-3 -10 -5 -2 -5 17 0 19 2 27 5 18 2
-10 2 -26 0 -35z m-780 -10 c-3 -10 -5 -2 -5 17 0 19 2 27 5 18 2 -10 2 -26 0
-35z m-540 17 c1 -11 -2 -18 -8 -15 -11 7 -12 35 -1 35 4 0 8 -9 9 -20z
m-1272 -119 c-7 -26 -7 -26 -16 -3 -5 14 -4 33 3 50 11 27 12 27 16 3 2 -12 1
-35 -3 -50z m5037 24 c-2 -14 -6 -25 -8 -25 -2 0 -4 11 -4 25 0 14 4 25 9 25
4 0 6 -11 3 -25z m-3989 -42 c-7 -2 -21 -2 -30 0 -10 3 -4 5 12 5 17 0 24 -2
18 -5z m115 0 c-10 -2 -28 -2 -40 0 -13 2 -5 4 17 4 22 1 32 -1 23 -4z m205 0
c-7 -2 -21 -2 -30 0 -10 3 -4 5 12 5 17 0 24 -2 18 -5z m1665 0 c-15 -2 -42
-2 -60 0 -18 2 -6 4 27 4 33 0 48 -2 33 -4z m95 0 c-7 -2 -19 -2 -25 0 -7 3
-2 5 12 5 14 0 19 -2 13 -5z m44 1 c-3 -3 -12 -4 -19 -1 -8 3 -5 6 6 6 11 1
17 -2 13 -5z m861 -292 c270 -1 492 -6 492 -10 0 -4 -649 -8 -1442 -7 -1167 0
-2572 -8 -2615 -16 -26 -5 -205 2 -200 8 9 8 115 11 762 19 297 4 541 7 542 8
2 2 1855 0 2461 -2z m788 -15 c3 -3 -60 -6 -141 -6 -84 -1 -144 2 -141 8 6 9
272 8 282 -2z m-4676 -13 c0 -2 -9 -4 -20 -4 -11 0 -20 4 -20 9 0 5 9 7 20 4
11 -3 20 -7 20 -9z m4803 9 c-7 -2 -19 -2 -25 0 -7 3 -2 5 12 5 14 0 19 -2 13
-5z m-4876 -9 c-3 -3 -12 -4 -19 -1 -8 3 -5 6 6 6 11 1 17 -2 13 -5z m4178
-55 c358 -2 682 -5 722 -7 l72 -4 0 -417 c0 -230 -3 -428 -6 -441 l-6 -23
-306 6 c-168 4 -335 7 -371 8 -49 0 -60 2 -42 9 12 5 22 14 22 20 0 6 -6 8
-12 4 -10 -6 -10 -4 0 7 6 7 12 16 12 20 0 15 -45 56 -57 52 -7 -3 -16 2 -19
11 -3 8 -11 13 -19 10 -7 -3 -19 1 -26 8 -18 16 -49 22 -49 9 0 -6 -7 -8 -15
-5 -10 4 -15 0 -15 -12 0 -14 -3 -15 -8 -6 -6 9 -14 3 -27 -22 -10 -19 -24
-32 -29 -28 -6 3 -5 -2 3 -11 11 -14 11 -17 0 -17 -8 0 -23 -8 -34 -17 -13
-10 -15 -14 -4 -10 9 3 21 2 28 -2 19 -12 -41 -19 -144 -16 -269 6 -308 8
-285 14 19 4 25 13 25 33 1 14 -2 25 -5 23 -3 -2 -11 5 -18 15 -7 12 -8 21 -2
25 6 3 10 12 10 18 0 7 -4 6 -10 -3 -6 -9 -10 -10 -10 -3 0 6 -9 10 -20 8 -11
-2 -20 2 -20 8 0 7 -4 6 -11 -3 -9 -12 -10 -10 -6 8 4 17 2 21 -7 13 -6 -6
-21 -10 -31 -10 -38 0 -60 -6 -73 -21 -12 -13 -13 -13 -7 0 4 10 2 9 -8 -2 -8
-10 -16 -15 -19 -12 -4 3 -9 1 -13 -5 -3 -6 -1 -11 5 -11 6 0 8 -5 5 -10 -4
-6 -10 -8 -15 -5 -5 3 -7 -4 -5 -16 3 -12 -2 -27 -10 -33 -12 -9 -2 -12 42
-14 128 -7 53 -12 -169 -12 -238 0 -312 5 -286 21 19 12 -2 29 -39 32 -17 1
-31 4 -31 7 1 20 -17 49 -33 53 -21 6 -64 -44 -51 -58 4 -5 2 -6 -3 -2 -13 7
-54 -14 -54 -28 0 -5 -22 -13 -48 -16 -43 -5 -291 -5 -383 1 -31 2 -32 3 -11
9 23 6 23 7 6 25 -11 10 -27 16 -41 13 -15 -3 -34 7 -59 30 -41 38 -54 38 -72
2 -7 -13 -13 -18 -13 -11 0 14 -15 5 -47 -30 -9 -9 -22 -14 -28 -11 -7 2 -16
0 -19 -5 -3 -5 8 -9 25 -10 17 0 34 -3 37 -6 7 -8 -321 -12 -438 -5 -31 2 -32
2 -7 6 15 2 25 9 21 14 -3 5 -10 7 -15 4 -5 -4 -9 -1 -9 4 0 6 -8 11 -18 11
-10 0 -28 7 -40 16 -12 8 -27 12 -34 8 -6 -4 -8 -3 -5 3 7 12 -30 32 -55 31
-17 -1 -23 -11 -18 -33 1 -5 -1 -7 -5 -3 -4 4 -14 1 -22 -7 -8 -8 -24 -15 -36
-15 -12 0 -29 -5 -37 -10 -12 -8 -13 -12 -2 -19 21 -13 -14 -17 -182 -20 -94
-2 -146 1 -142 7 3 5 -1 15 -8 21 -10 8 -16 9 -21 1 -3 -5 -1 -10 4 -10 6 0
11 -4 11 -10 0 -5 -16 -8 -35 -6 -39 3 -61 16 -27 16 12 0 22 4 22 9 0 5 -10
7 -22 3 -12 -3 -19 -1 -15 4 3 6 -3 15 -13 22 -12 7 -21 8 -25 2 -4 -6 -12 -7
-18 -3 -7 4 -18 8 -25 9 -19 3 -23 8 -25 32 0 11 -6 20 -12 19 -5 -1 -9 4 -7
11 2 10 -2 10 -17 0 -11 -7 -18 -15 -16 -19 9 -13 -42 -50 -61 -43 -14 4 -15
3 -6 -4 11 -7 10 -11 -5 -17 -22 -10 -63 -13 -58 -5 8 13 -15 34 -41 37 -25 4
-26 3 -13 -13 9 -12 10 -15 1 -10 -7 4 -15 1 -18 -8 -3 -9 -9 -14 -13 -12 -4
3 -13 1 -19 -3 -8 -4 4 -8 28 -9 23 -1 39 2 36 7 -3 5 1 14 9 21 13 11 15 8
15 -14 0 -16 4 -25 10 -21 6 3 10 2 10 -3 0 -6 -136 -10 -349 -11 l-350 -2 -3
98 c-2 54 -3 247 -3 428 l0 330 425 6 c234 3 732 7 1106 8 l681 1 -5 -25 c-2
-14 0 -25 7 -25 6 0 8 7 4 17 -5 12 -3 14 7 8 10 -6 12 -4 7 8 -9 23 238 25
2028 16z m920 -38 c-3 -6 -11 -11 -16 -11 -5 0 -4 6 3 14 14 16 24 13 13 -3z
m5 -665 c0 -8 -7 -17 -16 -20 -13 -5 -14 -4 -6 7 7 8 9 17 5 20 -3 4 -1 7 5 7
7 0 12 -6 12 -14z m-113 -48 c-2 -13 -4 -5 -4 17 -1 22 1 32 4 23 2 -10 2 -28
0 -40z m29 -115 c-10 -10 -19 5 -10 18 6 11 8 11 12 0 2 -7 1 -15 -2 -18z
m-4336 7 c0 -5 -4 -10 -9 -10 -6 0 -13 5 -16 10 -3 6 1 10 9 10 9 0 16 -4 16
-10z m4317 -38 c1 -9 5 -42 8 -72 4 -30 13 -104 21 -163 17 -127 16 -117 6
-117 -7 0 -32 173 -49 335 -5 45 7 60 14 17z m-4977 -72 c0 -5 -5 -10 -11 -10
-5 0 -7 5 -4 10 3 6 8 10 11 10 2 0 4 -4 4 -10z m4855 -10 c3 -5 -1 -10 -10
-10 -9 0 -13 5 -10 10 3 6 8 10 10 10 2 0 7 -4 10 -10z m-1313 -80 c21 -10 25
-16 17 -26 -8 -10 -5 -16 10 -26 15 -9 21 -23 21 -50 0 -42 6 -39 -110 -57
-60 -10 -66 -9 -87 11 l-23 21 0 -29 c-1 -29 -1 -29 -21 11 -24 48 -24 121 0
130 9 4 28 8 44 10 15 2 35 9 45 14 20 13 66 9 104 -9z m588 1 c0 -5 15 -9 34
-9 56 0 114 -13 126 -27 6 -7 12 -25 13 -40 2 -22 -3 -28 -23 -31 -14 -3 -32
-7 -40 -11 -15 -6 -42 -11 -87 -16 -38 -4 -26 -16 20 -19 39 -3 42 -5 45 -35
3 -28 0 -33 -18 -33 -11 0 -20 6 -19 13 4 33 -2 44 -23 43 -18 -1 -23 -7 -23
-29 1 -22 -3 -27 -20 -25 -15 2 -21 12 -23 38 -4 36 -22 68 -22 37 0 -9 -4
-17 -9 -17 -11 0 -23 29 -17 39 3 4 1 24 -3 44 -9 39 2 57 49 76 32 13 40 13
40 2z m-3412 -78 c3 -47 6 -53 25 -53 18 0 22 -5 21 -32 l-1 -33 -65 -3 -65
-3 2 31 c1 16 -2 30 -6 30 -4 0 -14 3 -23 6 -13 5 -16 -1 -16 -25 0 -56 -36
-30 -44 31 l-4 36 26 -14 c37 -19 52 -18 52 4 0 11 7 33 16 51 14 27 21 32 48
29 30 -3 31 -5 34 -55z m690 47 c7 0 12 -13 12 -30 0 -27 -3 -30 -30 -30 -27
0 -29 -2 -18 -19 13 -21 28 -23 40 -6 4 6 8 2 8 -7 0 -12 8 -18 23 -18 20 0
23 -4 19 -35 -4 -29 -8 -35 -29 -35 -13 0 -21 4 -18 10 6 9 -8 14 -28 11 -5
-1 -5 3 -2 9 4 6 13 9 19 7 15 -6 17 25 3 35 -19 12 -37 -4 -37 -32 0 -19 6
-30 18 -33 9 -3 -1 -5 -23 -4 -36 2 -40 4 -37 26 3 22 -11 40 -32 41 -4 0 -6
-13 -4 -30 5 -33 -15 -42 -27 -12 -13 29 -13 83 -1 72 7 -5 24 -14 39 -19 21
-8 27 -8 26 2 -1 6 4 34 11 60 11 42 16 48 34 43 12 -3 27 -6 34 -6z m700 -9
c7 -4 13 -19 14 -32 0 -13 2 -37 5 -52 4 -25 8 -28 31 -23 15 4 22 3 15 -1 -6
-5 -13 -22 -15 -38 -2 -23 -8 -31 -28 -33 -24 -3 -25 -1 -24 58 1 63 -6 77
-30 63 -17 -9 -16 -6 -16 -74 0 -47 -2 -50 -22 -47 -19 2 -22 8 -20 36 3 27 0
32 -17 32 -17 0 -21 -5 -17 -25 8 -45 -22 -29 -32 18 -10 50 -8 55 15 35 10
-9 29 -17 43 -20 23 -4 25 -1 25 36 0 23 4 49 7 59 8 18 44 23 66 8z m710 -29
c3 -16 -2 -22 -17 -23 -12 -1 -26 -2 -33 -3 -7 -1 -13 -24 -16 -61 -2 -33 -5
-62 -7 -63 -2 -2 -12 -1 -23 2 -13 4 -19 15 -18 33 1 33 -20 42 -29 12 -6 -17
-9 -19 -16 -8 -12 20 -11 62 1 54 6 -4 23 -10 38 -14 26 -8 27 -7 28 34 1 66
7 73 51 66 29 -5 39 -11 41 -29z m-723 -52 c3 -5 1 -10 -4 -10 -6 0 -11 5 -11
10 0 6 2 10 4 10 3 0 8 -4 11 -10z m725 -21 c0 -10 4 -19 9 -19 11 0 19 -30
14 -47 -3 -7 -13 -13 -23 -13 -18 0 -29 40 -22 88 4 26 22 20 22 -9z m712 -49
c7 -45 -33 -54 -45 -10 -3 12 1 24 11 30 26 14 29 12 34 -20z m-82 -22 c0 -5
-11 -8 -25 -8 -18 0 -25 5 -25 19 0 17 3 18 25 8 14 -7 25 -15 25 -19z m1465
-118 c3 -5 1 -10 -4 -10 -6 0 -11 5 -11 10 0 6 2 10 4 10 3 0 8 -4 11 -10z"/>
<path d="M2970 6245 c-15 -18 -17 -62 -3 -76 5 -5 7 5 5 26 -2 19 1 42 8 50 7
8 10 15 7 15 -2 0 -10 -7 -17 -15z"/>
<path d="M3000 6205 c0 -36 3 -46 10 -35 5 8 10 24 10 35 0 11 -5 27 -10 35
-7 11 -10 1 -10 -35z"/>
<path d="M3645 6239 c-4 -5 -1 -8 7 -7 8 2 13 -6 12 -19 0 -12 3 -20 8 -17 4
3 8 13 8 24 0 20 -26 35 -35 19z"/>
<path d="M3643 6153 c9 -2 23 -2 30 0 6 3 -1 5 -18 5 -16 0 -22 -2 -12 -5z"/>
<path d="M2300 6225 c-11 -29 3 -75 23 -75 21 0 37 22 37 50 0 50 -44 68 -60
25z m40 -26 c0 -52 -24 -48 -28 4 -2 28 1 37 12 37 12 0 16 -11 16 -41z"/>
<path d="M4339 6208 c-6 -43 4 -86 12 -52 3 10 2 35 -1 54 l-6 35 -5 -37z"/>
<path d="M4966 6222 c-4 -6 3 -8 15 -5 20 5 21 3 16 -23 -5 -27 -4 -27 9 -9 8
10 13 24 11 30 -5 13 -44 19 -51 7z"/>
<path d="M4973 6143 c9 -2 25 -2 35 0 9 3 1 5 -18 5 -19 0 -27 -2 -17 -5z"/>
<path d="M5685 6240 c-4 -6 7 -10 25 -10 18 0 29 4 25 10 -3 6 -15 10 -25 10
-10 0 -22 -4 -25 -10z"/>
<path d="M5712 6195 c-7 -14 -12 -31 -12 -38 1 -7 7 3 16 22 17 39 13 54 -4
16z"/>
<path d="M1370 5454 c0 -8 5 -12 10 -9 6 4 8 11 5 16 -9 14 -15 11 -15 -7z"/>
<path d="M1400 5449 c0 -7 3 -10 6 -6 3 3 17 2 30 -3 15 -6 24 -6 24 0 0 6 -6
10 -14 10 -8 0 -21 3 -30 6 -10 4 -16 1 -16 -7z"/>
<path d="M1395 5230 c3 -5 8 -10 11 -10 2 0 4 5 4 10 0 6 -5 10 -11 10 -5 0
-7 -4 -4 -10z"/>
<path d="M669 4644 c-17 -21 0 -49 32 -49 27 0 37 28 19 50 -16 19 -34 19 -51
-1z"/>
<path d="M7666 4641 c-29 -32 5 -72 45 -51 25 14 25 46 0 60 -25 13 -25 13
-45 -9z"/>
<path d="M6562 4080 c0 -19 2 -27 5 -17 2 9 2 25 0 35 -3 9 -5 1 -5 -18z"/>
<path d="M3683 4246 c-10 -11 -9 -15 2 -20 10 -4 15 1 15 14 0 23 -1 24 -17 6z"/>
<path d="M5024 4237 c-8 -9 -7 -16 3 -25 11 -11 13 -8 13 13 0 28 -1 29 -16
12z"/>
<path d="M5711 4244 c0 -11 3 -14 6 -6 3 7 2 16 -1 19 -3 4 -6 -2 -5 -13z"/>
<path d="M5727 4231 c-4 -17 -3 -21 5 -13 5 5 8 16 6 23 -3 8 -7 3 -11 -10z"/>
<path d="M676 4043 c-11 -11 -6 -23 9 -23 8 0 15 4 15 9 0 13 -16 22 -24 14z"/>
<path d="M660 3984 c-11 -12 -10 -18 3 -31 8 -9 23 -13 31 -10 21 8 21 43 0
51 -21 8 -20 8 -34 -10z"/>
<path d="M7660 4025 c0 -9 5 -15 11 -13 6 2 11 8 11 13 0 5 -5 11 -11 13 -6 2
-11 -4 -11 -13z"/>
<path d="M7646 3974 c-7 -19 10 -44 29 -44 7 0 18 7 25 15 10 12 10 18 0 30
-16 20 -46 19 -54 -1z"/>
<path d="M652 3698 c-26 -26 1 -65 38 -53 16 5 20 14 18 33 -3 30 -35 41 -56
20z"/>
<path d="M7647 3674 c-15 -15 -7 -53 13 -59 27 -8 52 12 48 39 -3 21 -46 35
-61 20z"/>
<path d="M4362 3127 c-8 -10 -6 -13 7 -13 11 0 17 6 14 13 -3 7 -6 13 -8 13
-1 0 -7 -6 -13 -13z"/>
<path d="M2304 3115 c-4 -9 -2 -21 4 -27 8 -8 9 -4 6 13 -5 19 -4 21 5 9 7 -9
11 -10 11 -3 0 19 -20 26 -26 8z"/>
<path d="M2983 3114 c-3 -8 -1 -20 5 -26 8 -8 9 -4 5 12 -5 17 -3 21 7 15 9
-5 11 -4 6 3 -10 16 -15 15 -23 -4z"/>
<path d="M5034 3115 c-3 -8 -3 -18 0 -23 3 -5 -13 -12 -35 -16 -86 -14 -164
-74 -203 -156 -31 -66 -30 -208 2 -267 36 -69 77 -108 143 -138 53 -23 71 -27
123 -23 104 9 182 63 233 162 22 44 25 59 21 131 -5 90 -23 131 -95 213 -30
35 -53 49 -108 67 -45 15 -71 30 -73 41 -3 10 0 14 7 10 6 -4 11 -2 11 3 0 16
-20 13 -26 -4z m122 -104 c100 -47 154 -134 154 -247 0 -65 -7 -84 -31 -84
-10 0 -19 -5 -19 -11 0 -6 7 -9 15 -5 25 9 17 -9 -26 -58 -33 -38 -45 -45 -65
-40 -14 4 -24 2 -24 -4 0 -6 8 -12 18 -14 9 -2 -8 -11 -38 -21 -62 -19 -151
-15 -209 9 -28 12 -33 17 -21 24 15 10 13 11 -25 14 -28 2 -81 85 -96 150 -7
31 -9 73 -5 100 8 52 60 134 97 153 13 7 20 13 14 13 -5 0 -1 6 10 14 66 45
165 48 251 7z"/>
<path d="M5045 2990 c3 -5 12 -7 20 -3 21 7 19 13 -6 13 -11 0 -18 -4 -14 -10z"/>
<path d="M4908 2953 c7 -3 16 -2 19 1 4 3 -2 6 -13 5 -11 0 -14 -3 -6 -6z"/>
<path d="M5180 2940 c0 -5 4 -10 9 -10 6 0 13 5 16 10 3 6 -1 10 -9 10 -9 0
-16 -4 -16 -10z"/>
<path d="M4807 2864 c-16 -16 -6 -35 16 -32 12 2 22 10 22 18 0 16 -26 25 -38
14z"/>
<path d="M5265 2820 c-3 -5 1 -10 9 -10 9 0 16 5 16 10 0 6 -4 10 -9 10 -6 0
-13 -4 -16 -10z"/>
<path d="M5059 2787 c13 -16 13 -20 1 -27 -9 -5 -20 -5 -27 2 -8 7 -13 7 -13
0 0 -5 6 -15 14 -21 11 -9 18 -8 30 4 20 21 20 29 -1 46 -17 13 -17 12 -4 -4z"/>
<path d="M4810 2690 c0 -5 5 -10 10 -10 6 0 10 5 10 10 0 6 -4 10 -10 10 -5 0
-10 -4 -10 -10z"/>
<path d="M5025 2550 c3 -5 8 -10 11 -10 2 0 4 5 4 10 0 6 -5 10 -11 10 -5 0
-7 -4 -4 -10z"/>
<path d="M5714 3115 c-9 -23 14 -45 26 -25 5 8 8 19 7 24 -6 17 -27 18 -33 1z"/>
<path d="M6445 3108 c-11 -6 -21 -11 -22 -12 -1 -1 -5 -14 -8 -29 l-7 -28 30
31 c26 26 34 29 56 20 31 -11 36 4 7 20 -24 12 -31 12 -56 -2z"/>
<path d="M1518 3103 c-10 -2 -18 -9 -18 -15 0 -6 10 -8 25 -4 20 5 31 0 50
-20 19 -21 25 -23 25 -10 0 19 -35 56 -52 55 -7 -1 -21 -3 -30 -6z"/>
<path d="M4178 3084 c-8 -8 3 -44 13 -44 5 0 9 11 9 25 0 24 -10 32 -22 19z"/>
<path d="M3492 3054 c-1 -13 3 -24 8 -24 12 0 14 37 2 44 -4 2 -9 -6 -10 -20z"/>
<path d="M3597 3065 c-51 -19 -110 -63 -136 -100 -29 -44 -26 -53 5 -15 57 67
206 110 279 79 17 -6 35 -13 42 -13 24 -2 104 -78 124 -118 39 -77 38 -218 -1
-218 -24 0 -27 -17 -4 -22 12 -2 6 -15 -27 -51 -33 -38 -47 -48 -66 -44 -12 2
-23 0 -23 -4 0 -5 6 -9 13 -9 24 -1 -23 -21 -70 -30 -37 -7 -53 -5 -70 6 -13
8 -23 10 -23 4 0 -14 -24 -12 -70 6 -37 15 -39 18 -23 30 15 10 16 15 5 26
-10 10 -17 10 -32 1 -16 -11 -22 -8 -43 17 -44 51 -60 111 -55 196 4 58 3 72
-6 58 -19 -33 -13 -154 11 -206 43 -93 155 -168 253 -168 94 0 204 69 246 156
37 76 41 146 15 234 -19 60 -31 81 -72 121 -75 73 -180 97 -272 64z"/>
<path d="M4265 3064 c-100 -35 -165 -132 -173 -258 -6 -103 16 -165 83 -233
41 -40 65 -55 110 -68 127 -37 265 23 325 142 21 40 25 62 25 133 0 78 -3 90
-35 149 -68 126 -205 181 -335 135z m236 -66 c63 -43 93 -84 114 -153 18 -59
18 -78 5 -127 -7 -25 -15 -35 -24 -32 -8 3 -17 1 -21 -5 -3 -6 1 -11 9 -11 23
0 20 -11 -15 -58 -30 -42 -38 -46 -71 -43 -10 1 -18 -3 -18 -8 0 -6 6 -11 13
-12 22 -1 -65 -29 -92 -29 -43 0 -61 3 -61 11 0 16 21 20 38 8 14 -11 14 -9
-1 7 -18 19 -18 19 -37 -3 -22 -27 -28 -28 -81 -7 -29 12 -37 19 -27 25 10 7
10 9 -2 10 -8 1 -22 2 -30 3 -8 0 -30 23 -48 51 -30 44 -31 50 -16 55 12 5 14
9 6 14 -7 4 -16 5 -21 2 -11 -7 -21 42 -21 103 0 60 38 136 86 175 29 23 34
24 25 8 -8 -15 -7 -23 5 -33 23 -19 43 5 26 32 -8 12 -11 24 -7 27 18 19 78
31 141 29 65 -2 77 -6 125 -39z"/>
<path d="M4270 3009 c0 -5 5 -7 10 -4 6 3 10 8 10 11 0 2 -4 4 -10 4 -5 0 -10
-5 -10 -11z"/>
<path d="M4361 3001 c-10 -6 -9 -10 3 -14 8 -3 18 -2 21 3 8 13 -9 20 -24 11z"/>
<path d="M4506 2951 c-4 -5 -2 -12 3 -15 5 -4 12 -2 15 3 4 5 2 12 -3 15 -5 4
-12 2 -15 -3z"/>
<path d="M4125 2840 c-3 -5 3 -10 15 -10 12 0 18 5 15 10 -3 6 -10 10 -15 10
-5 0 -12 -4 -15 -10z"/>
<path d="M4585 2820 c4 -6 11 -8 16 -5 14 9 11 15 -7 15 -8 0 -12 -5 -9 -10z"/>
<path d="M4346 2749 c3 -5 11 -9 19 -9 8 0 16 4 19 9 3 5 -5 9 -19 9 -14 0
-22 -4 -19 -9z"/>
<path d="M4848 3058 c2 -10 8 -15 13 -12 14 8 11 31 -5 31 -8 0 -11 -8 -8 -19z"/>
<path d="M5530 3055 c0 -14 5 -25 10 -25 6 0 10 11 10 25 0 14 -4 25 -10 25
-5 0 -10 -11 -10 -25z"/>
<path d="M2114 3054 c3 -9 6 -18 6 -20 0 -3 5 -2 10 1 16 10 12 35 -6 35 -11
0 -14 -5 -10 -16z"/>
<path d="M2239 3061 c-60 -19 -134 -75 -158 -120 l-14 -26 24 21 c13 11 35 31
49 43 30 27 69 44 86 37 8 -3 16 -1 19 4 8 14 95 12 136 -1 65 -22 139 -87
166 -146 46 -99 20 -227 -60 -301 -21 -20 -29 -22 -46 -13 -14 8 -21 8 -21 1
0 -5 5 -10 10 -10 6 0 10 -4 10 -10 0 -5 -26 -17 -57 -26 -43 -13 -61 -14 -75
-5 -23 14 -41 14 -32 0 5 -9 -1 -10 -22 -5 -56 13 -85 29 -80 42 5 13 -11 19
-41 15 -7 -1 -28 22 -48 51 -28 41 -32 54 -20 56 8 2 13 8 9 13 -3 5 -9 7 -14
4 -5 -3 -12 4 -14 17 -3 13 -7 32 -9 43 -3 13 -5 9 -6 -11 -3 -83 58 -177 142
-219 150 -73 310 -18 384 133 24 49 28 68 27 137 -2 93 -18 138 -72 197 -66
74 -180 107 -273 79z"/>
<path d="M2510 3060 c0 -5 5 -10 11 -10 5 0 7 5 4 10 -3 6 -8 10 -11 10 -2 0
-4 -4 -4 -10z"/>
<path d="M2790 3063 c1 -18 18 -35 24 -24 4 6 4 16 1 21 -7 12 -25 13 -25 3z"/>
<path d="M2885 3045 c-59 -28 -84 -49 -110 -90 l-19 -30 34 33 c48 45 106 71
179 78 55 6 69 4 121 -21 51 -24 57 -30 43 -40 -19 -14 -11 -45 12 -45 9 0 15
9 15 21 0 29 19 13 60 -51 33 -51 32 -75 -1 -67 -24 6 -25 -11 -2 -20 9 -4 19
-1 21 5 11 33 20 5 17 -52 -3 -74 -8 -86 -38 -86 -20 -1 -21 -2 -5 -14 16 -12
15 -15 -8 -49 -28 -42 -56 -60 -78 -51 -9 3 -16 2 -16 -4 0 -6 5 -12 12 -14 6
-2 -14 -12 -45 -22 -56 -17 -93 -15 -110 8 -6 7 -7 4 -3 -6 3 -10 4 -18 3 -18
-2 0 -27 7 -55 15 -32 10 -52 21 -52 30 0 8 -8 15 -18 15 -19 0 -58 37 -87 83
-16 24 -16 27 -1 21 9 -3 16 -2 16 4 0 5 -9 12 -20 15 -17 4 -20 14 -22 74
l-2 68 -3 -62 c-8 -142 98 -265 240 -280 157 -16 305 112 308 267 1 61 -14
138 -35 179 -60 114 -230 166 -351 106z"/>
<path d="M3890 3063 c0 -5 5 -15 10 -23 8 -12 10 -11 10 8 0 12 -4 22 -10 22
-5 0 -10 -3 -10 -7z"/>
<path d="M4571 3063 c0 -5 4 -17 9 -28 8 -18 9 -17 9 8 1 15 -3 27 -9 27 -5 0
-10 -3 -9 -7z"/>
<path d="M5240 3063 c0 -5 5 -15 10 -23 8 -12 10 -11 10 8 0 12 -4 22 -10 22
-5 0 -10 -3 -10 -7z"/>
<path d="M5620 3059 c-51 -20 -117 -70 -130 -97 -20 -43 -39 -133 -40 -184 0
-102 66 -212 156 -258 64 -32 178 -35 239 -5 138 67 196 229 132 368 -28 61
-101 138 -159 168 -41 21 -154 25 -198 8z m207 -50 c93 -45 148 -120 160 -217
4 -37 2 -52 -12 -65 -9 -10 -21 -14 -27 -11 -7 4 -8 2 -4 -4 4 -7 14 -12 21
-12 12 0 12 -6 5 -26 -18 -45 -50 -84 -72 -84 -14 0 -18 -5 -14 -15 8 -22 -62
-54 -130 -61 -56 -5 -124 10 -124 27 0 6 -7 9 -15 7 -31 -6 -125 80 -97 90 7
2 12 8 12 14 0 6 -7 7 -16 4 -40 -15 -62 159 -28 226 25 50 106 126 150 142
65 24 120 20 191 -15z"/>
<path d="M5685 2990 c-3 -5 1 -10 9 -10 9 0 16 5 16 10 0 6 -4 10 -9 10 -6 0
-13 -4 -16 -10z"/>
<path d="M5830 2960 c0 -5 4 -10 9 -10 6 0 13 5 16 10 3 6 -1 10 -9 10 -9 0
-16 -4 -16 -10z"/>
<path d="M5548 2918 c9 -9 15 -9 24 0 9 9 7 12 -12 12 -19 0 -21 -3 -12 -12z"/>
<path d="M5520 2895 c-11 -13 -10 -14 4 -9 9 3 16 10 16 15 0 13 -6 11 -20 -6z"/>
<path d="M5935 2860 c-3 -5 1 -10 10 -10 9 0 13 5 10 10 -3 6 -8 10 -10 10 -2
0 -7 -4 -10 -10z"/>
<path d="M5480 2790 c0 -5 4 -10 9 -10 6 0 13 5 16 10 3 6 -1 10 -9 10 -9 0
-16 -4 -16 -10z"/>
<path d="M5705 2790 c-3 -5 -1 -10 4 -10 6 0 11 5 11 10 0 6 -2 10 -4 10 -3 0
-8 -4 -11 -10z"/>
<path d="M5739 2782 c10 -18 9 -23 -3 -28 -8 -3 -20 -3 -26 1 -5 3 -10 2 -10
-4 0 -17 42 -25 51 -10 13 21 11 35 -8 50 -15 13 -15 12 -4 -9z"/>
<path d="M5937 3053 c-3 -5 -1 -17 4 -28 7 -17 8 -17 8 8 1 27 -4 34 -12 20z"/>
<path d="M3200 3043 c0 -5 5 -15 10 -23 8 -12 10 -11 10 8 0 12 -4 22 -10 22
-5 0 -10 -3 -10 -7z"/>
<path d="M6326 3039 c3 -5 12 -9 21 -9 19 0 9 13 -12 16 -8 1 -13 -2 -9 -7z"/>
<path d="M2285 3010 c-4 -7 0 -19 9 -28 15 -15 18 -15 26 -2 5 8 8 20 7 25 -5
15 -34 18 -42 5z"/>
<path d="M2980 2990 c0 -5 9 -10 21 -10 11 0 17 5 14 10 -3 6 -13 10 -21 10
-8 0 -14 -4 -14 -10z"/>
<path d="M3680 2990 c0 -5 7 -10 16 -10 8 0 12 5 9 10 -3 6 -10 10 -16 10 -5
0 -9 -4 -9 -10z"/>
<path d="M6468 2983 c7 -3 16 -2 19 1 4 3 -2 6 -13 5 -11 0 -14 -3 -6 -6z"/>
<path d="M2840 2950 c0 -5 7 -10 16 -10 8 0 12 5 9 10 -3 6 -10 10 -16 10 -5
0 -9 -4 -9 -10z"/>
<path d="M3535 2950 c3 -5 10 -10 16 -10 5 0 9 5 9 10 0 6 -7 10 -16 10 -8 0
-12 -4 -9 -10z"/>
<path d="M2150 2940 c0 -5 7 -10 16 -10 8 0 12 5 9 10 -3 6 -10 10 -16 10 -5
0 -9 -4 -9 -10z"/>
<path d="M2430 2940 c0 -5 7 -10 16 -10 8 0 12 5 9 10 -3 6 -10 10 -16 10 -5
0 -9 -4 -9 -10z"/>
<path d="M3820 2940 c0 -5 4 -10 9 -10 6 0 13 5 16 10 3 6 -1 10 -9 10 -9 0
-16 -4 -16 -10z"/>
<path d="M4737 2908 c4 -19 3 -20 -6 -8 -9 13 -11 13 -11 -2 0 -10 7 -18 15
-18 16 0 21 35 6 44 -5 4 -7 -4 -4 -16z"/>
<path d="M5425 2918 c4 -11 2 -18 -4 -18 -6 0 -11 -4 -11 -10 0 -16 20 -12 27
6 3 8 0 21 -6 27 -9 9 -11 8 -6 -5z"/>
<path d="M4040 2898 c0 -10 7 -18 15 -18 8 0 15 8 15 18 0 10 -7 19 -15 19 -8
0 -15 -9 -15 -19z"/>
<path d="M3985 2900 c-3 -5 -1 -10 4 -10 6 0 11 5 11 10 0 6 -2 10 -4 10 -3 0
-8 -4 -11 -10z"/>
<path d="M4668 2903 c7 -3 16 -2 19 1 4 3 -2 6 -13 5 -11 0 -14 -3 -6 -6z"/>
<path d="M5340 2900 c0 -5 5 -10 11 -10 5 0 7 5 4 10 -3 6 -8 10 -11 10 -2 0
-4 -4 -4 -10z"/>
<path d="M4670 2880 c0 -5 5 -10 11 -10 5 0 7 5 4 10 -3 6 -8 10 -11 10 -2 0
-4 -4 -4 -10z"/>
<path d="M6030 2890 c-10 -34 -8 -50 5 -50 8 0 15 3 14 8 -1 11 -17 48 -19 42z"/>
<path d="M3355 2870 c3 -5 10 -10 16 -10 5 0 9 5 9 10 0 6 -7 10 -16 10 -8 0
-12 -4 -9 -10z"/>
<path d="M3445 2840 c-3 -5 1 -10 10 -10 9 0 13 5 10 10 -3 6 -8 10 -10 10 -2
0 -7 -4 -10 -10z"/>
<path d="M2750 2830 c0 -5 7 -10 15 -10 8 0 15 5 15 10 0 6 -7 10 -15 10 -8 0
-15 -4 -15 -10z"/>
<path d="M2065 2820 c4 -6 11 -8 16 -5 14 9 11 15 -7 15 -8 0 -12 -5 -9 -10z"/>
<path d="M2520 2820 c0 -5 7 -10 16 -10 8 0 12 5 9 10 -3 6 -10 10 -16 10 -5
0 -9 -4 -9 -10z"/>
<path d="M3900 2820 c0 -5 4 -10 9 -10 6 0 13 5 16 10 3 6 -1 10 -9 10 -9 0
-16 -4 -16 -10z"/>
<path d="M3700 2761 c0 -8 -8 -11 -20 -8 -21 5 -27 -7 -9 -19 13 -8 46 22 36
32 -4 4 -7 2 -7 -5z"/>
<path d="M2280 2742 c0 -8 9 -12 22 -10 30 4 33 23 3 23 -14 0 -25 -6 -25 -13z"/>
<path d="M2990 2751 c-18 -5 -21 -9 -11 -15 8 -5 19 -2 29 8 9 9 14 16 12 15
-3 -1 -16 -4 -30 -8z"/>
<path d="M2613 2690 c1 -11 5 -20 9 -20 4 0 8 9 8 20 0 11 -4 20 -9 20 -6 0
-9 -9 -8 -20z"/>
<path d="M2674 2690 c0 -24 11 -26 20 -4 8 22 8 24 -7 24 -7 0 -13 -9 -13 -20z"/>
<path d="M5404 2685 c-1 -14 2 -22 7 -19 11 6 12 44 2 44 -5 0 -9 -11 -9 -25z"/>
<path d="M6033 2685 c0 -14 3 -25 8 -25 5 0 9 11 9 25 0 14 -4 25 -9 25 -5 0
-8 -11 -8 -25z"/>
<path d="M3363 2680 c-1 -11 2 -18 8 -15 11 7 12 35 1 35 -4 0 -8 -9 -9 -20z"/>
<path d="M3440 2690 c0 -5 5 -10 10 -10 6 0 10 5 10 10 0 6 -4 10 -10 10 -5 0
-10 -4 -10 -10z"/>
<path d="M3990 2685 c10 -12 10 -15 0 -15 -8 0 -11 -3 -7 -6 3 -3 10 -3 16 0
12 8 3 36 -11 36 -6 0 -5 -6 2 -15z"/>
<path d="M4047 2680 c-3 -11 -2 -20 3 -20 4 0 10 9 13 20 3 11 2 20 -3 20 -4
0 -10 -9 -13 -20z"/>
<path d="M4727 2680 c-3 -11 -1 -20 4 -20 5 0 9 2 9 4 0 2 3 11 6 20 3 9 2 16
-4 16 -5 0 -12 -9 -15 -20z"/>
<path d="M5353 2686 c3 -8 1 -17 -6 -20 -7 -2 -4 -5 6 -5 11 -1 17 6 17 19 0
11 -5 20 -11 20 -6 0 -9 -6 -6 -14z"/>
<path d="M1987 2684 c7 -3 9 -13 6 -22 -4 -14 -3 -14 5 -2 12 16 7 30 -11 29
-9 0 -9 -2 0 -5z"/>
<path d="M4670 2683 c0 -5 5 -15 10 -23 8 -12 10 -11 10 8 0 12 -4 22 -10 22
-5 0 -10 -3 -10 -7z"/>
<path d="M2515 2670 c3 -5 10 -10 16 -10 5 0 9 5 9 10 0 6 -7 10 -16 10 -8 0
-12 -4 -9 -10z"/>
<path d="M3300 2665 c10 -12 10 -15 0 -15 -8 0 -11 -3 -7 -6 3 -3 10 -3 16 0
12 8 3 36 -11 36 -6 0 -5 -6 2 -15z"/>
<path d="M3455 2547 c-4 -10 -3 -23 4 -30 16 -16 26 0 14 25 -10 21 -11 22
-18 5z"/>
<path d="M3862 2547 c-10 -11 -9 -17 2 -26 17 -14 26 -3 17 22 -6 16 -9 17
-19 4z"/>
<path d="M4000 2549 c11 -8 12 -12 2 -16 -15 -6 -6 -23 12 -23 9 0 12 9 8 25
-2 15 -11 25 -21 25 -14 0 -14 -2 -1 -11z"/>
<path d="M4140 2541 c0 -11 4 -22 9 -25 11 -7 20 14 13 32 -7 19 -22 14 -22
-7z"/>
<path d="M5239 2544 c-10 -13 -10 -17 1 -24 20 -12 29 -4 23 20 -6 24 -7 24
-24 4z"/>
<path d="M2085 2537 c-4 -10 -3 -23 4 -30 16 -16 26 0 14 25 -10 21 -11 22
-18 5z"/>
<path d="M2506 2534 c-8 -21 -8 -21 9 -27 20 -8 26 5 10 26 -11 16 -13 16 -19
1z"/>
<path d="M4542 2537 c-10 -11 -9 -17 2 -26 17 -14 26 -3 17 22 -6 16 -9 17
-19 4z"/>
<path d="M4830 2531 c0 -22 16 -36 24 -22 8 12 -3 41 -15 41 -5 0 -9 -9 -9
-19z"/>
<path d="M2775 2528 c-9 -22 4 -43 17 -30 7 7 7 16 0 29 -10 17 -11 17 -17 1z"/>
<path d="M3166 2531 c-4 -6 -3 -19 3 -28 9 -17 10 -17 17 0 8 21 -10 45 -20
28z"/>
<path d="M5510 2520 c0 -11 7 -20 15 -20 17 0 18 2 9 24 -9 23 -24 20 -24 -4z"/>
<path d="M5895 2520 c-8 -13 14 -42 25 -35 10 6 1 45 -11 45 -4 0 -11 -5 -14
-10z"/>
<path d="M2986 2471 c-9 -14 5 -41 21 -41 10 0 13 6 9 16 -3 9 -6 20 -6 25 0
12 -17 12 -24 0z"/>
<path d="M3650 2470 c0 -5 5 -10 11 -10 5 0 7 -4 4 -10 -3 -5 -2 -10 3 -10 14
0 21 11 15 26 -6 16 -33 19 -33 4z"/>
<path d="M4330 2471 c0 -20 13 -41 21 -35 15 9 10 44 -6 44 -8 0 -15 -4 -15
-9z"/>
<path d="M5011 2458 c-6 -17 -4 -25 6 -32 19 -10 33 9 26 35 -7 26 -22 24 -32
-3z"/>
<path d="M2300 2445 c0 -15 6 -25 15 -25 10 0 14 9 13 25 -1 14 -8 25 -15 25
-7 0 -13 -11 -13 -25z"/>
<path d="M5700 2445 c0 -15 6 -25 15 -25 10 0 14 9 13 25 -1 14 -8 25 -15 25
-7 0 -13 -11 -13 -25z"/>
<path d="M2940 2449 c0 -5 5 -7 10 -4 6 3 10 8 10 11 0 2 -4 4 -10 4 -5 0 -10
-5 -10 -11z"/>
<path d="M5894 2449 c-3 -6 -1 -16 5 -22 8 -8 11 -5 11 11 0 24 -5 28 -16 11z"/>
<path d="M2200 2340 c0 -5 5 -10 11 -10 5 0 7 5 4 10 -3 6 -8 10 -11 10 -2 0
-4 -4 -4 -10z"/>
<path d="M2070 2336 c0 -2 7 -7 16 -10 8 -3 12 -2 9 4 -6 10 -25 14 -25 6z"/>
<path d="M3326 2303 c-6 -14 -5 -15 5 -6 7 7 10 15 7 18 -3 3 -9 -2 -12 -12z"/>
<path d="M1935 2300 c-16 -7 -17 -9 -3 -9 9 -1 20 4 23 9 7 11 7 11 -20 0z"/>
<path d="M2270 2002 c-17 -8 -19 -20 -7 -39 5 -8 4 -13 -2 -13 -6 0 -11 -13
-11 -30 0 -23 5 -30 19 -30 22 0 33 21 21 41 -5 7 -7 28 -4 46 3 18 4 33 2 32
-2 0 -10 -3 -18 -7z"/>
<path d="M6568 6373 c11 -4 42 -54 42 -68 0 -4 -8 -5 -17 -4 -37 3 -53 -1 -53
-15 0 -8 5 -18 12 -22 8 -5 9 -2 5 9 -3 10 -2 17 3 17 6 0 10 -6 10 -14 0 -19
19 -24 56 -15 33 9 32 7 26 94 -2 26 -26 34 -36 13 -5 -10 -7 -10 -12 0 -3 6
-15 12 -27 11 -12 0 -16 -3 -9 -6z m49 -99 c-3 -3 -12 -4 -19 -1 -8 3 -5 6 6
6 11 1 17 -2 13 -5z"/>
<path d="M1381 6321 c-9 -6 -10 -11 -3 -15 6 -4 9 -14 6 -24 -5 -14 -3 -14 10
2 11 14 13 22 5 27 -8 4 -7 8 2 12 8 3 10 6 4 6 -5 0 -16 -3 -24 -8z"/>
<path d="M6631 6144 c0 -11 3 -14 6 -6 3 7 2 16 -1 19 -3 4 -6 -2 -5 -13z"/>
<path d="M1461 6134 c0 -11 3 -14 6 -6 3 7 2 16 -1 19 -3 4 -6 -2 -5 -13z"/>
<path d="M6580 6140 c0 -5 5 -10 11 -10 5 0 7 5 4 10 -3 6 -8 10 -11 10 -2 0
-4 -4 -4 -10z"/>
<path d="M6581 6104 c0 -11 3 -14 6 -6 3 7 2 16 -1 19 -3 4 -6 -2 -5 -13z"/>
<path d="M1405 6100 c-3 -5 -1 -10 4 -10 6 0 11 5 11 10 0 6 -2 10 -4 10 -3 0
-8 -4 -11 -10z"/>
<path d="M6589 3203 c0 -16 -2 -36 -4 -45 -2 -10 1 -20 6 -24 5 -3 9 18 9 45
0 52 -9 73 -11 24z"/>
<path d="M1430 2896 c0 -20 4 -35 9 -32 4 3 7 17 5 32 -4 41 -14 41 -14 0z"/>
<path d="M6562 2885 c-9 -19 -9 -25 1 -25 8 0 8 -3 -2 -9 -9 -6 -10 -11 -2
-15 6 -4 11 -4 12 1 9 84 8 87 -9 48z"/>
<path d="M6595 2890 c-3 -5 -1 -10 4 -10 6 0 11 5 11 10 0 6 -2 10 -4 10 -3 0
-8 -4 -11 -10z"/>
<path d="M6639 2834 c0 -10 -1 -36 -2 -56 -1 -23 2 -34 7 -28 6 6 9 29 7 52
-2 44 -10 66 -12 32z"/>
<path d="M1412 2795 c0 -16 2 -22 5 -12 2 9 2 23 0 30 -3 6 -5 -1 -5 -18z"/>
<path d="M6590 2789 c0 -5 5 -7 10 -4 6 3 10 8 10 11 0 2 -4 4 -10 4 -5 0 -10
-5 -10 -11z"/>
<path d="M6590 2718 c0 -23 3 -38 7 -34 11 10 11 76 1 76 -4 0 -8 -19 -8 -42z"/>
<path d="M1377 2691 c-4 -17 -3 -21 5 -13 5 5 8 16 6 23 -3 8 -7 3 -11 -10z"/>
<path d="M6625 2669 c-4 -6 -5 -12 -2 -15 2 -3 7 2 10 11 7 17 1 20 -8 4z"/>
<path d="M6646 2564 c-5 -14 -4 -15 9 -4 17 14 19 20 6 20 -5 0 -12 -7 -15
-16z"/>
<path d="M1356 2535 c-4 -14 -3 -32 2 -40 7 -13 10 -13 27 1 13 10 15 14 5 11
-11 -3 -16 3 -18 21 -3 35 -8 38 -16 7z"/>
<path d="M1340 2454 c0 -15 4 -23 10 -19 6 4 8 11 5 16 -4 5 1 9 9 9 23 0 19
15 -4 17 -15 1 -20 -4 -20 -23z"/>
<path d="M1339 2403 c-1 -10 -3 -36 -5 -57 -2 -22 1 -45 6 -51 6 -7 6 -16 2
-20 -4 -5 -2 -5 5 -2 12 7 12 31 0 43 -10 10 -9 26 1 20 4 -2 8 4 8 14 0 10
-5 16 -10 13 -5 -4 -7 1 -3 11 4 10 7 20 7 22 0 2 5 4 11 4 5 0 8 -4 4 -9 -3
-5 -2 -12 3 -15 4 -2 9 6 10 20 1 18 -3 24 -18 24 -12 0 -21 -7 -21 -17z"/>
<path d="M6586 2367 c3 -10 9 -15 12 -12 3 3 0 11 -7 18 -10 9 -11 8 -5 -6z"/>
<path d="M1430 2284 c0 -8 5 -12 10 -9 6 3 10 10 10 16 0 5 -4 9 -10 9 -5 0
-10 -7 -10 -16z"/>
<path d="M1360 1806 c0 -2 7 -7 16 -10 8 -3 12 -2 9 4 -6 10 -25 14 -25 6z"/>
<path d="M1372 1625 c2 -23 28 -37 28 -15 0 6 -5 10 -11 10 -8 0 -8 5 1 15 10
12 10 15 -4 15 -11 0 -15 -8 -14 -25z"/>
<path d="M6045 1630 c-3 -5 -1 -10 4 -10 6 0 11 5 11 10 0 6 -2 10 -4 10 -3 0
-8 -4 -11 -10z"/>
<path d="M6250 1610 l-55 -7 52 -1 c28 -1 55 3 58 8 3 6 5 9 3 8 -2 -1 -28 -4
-58 -8z"/>
<path d="M1372 1560 c1 -17 6 -34 10 -36 5 -3 7 9 6 26 -1 17 -6 34 -10 36 -5
3 -7 -9 -6 -26z"/>
<path d="M1378 1498 c-3 -7 -5 -62 -6 -123 0 -74 2 -99 7 -78 9 35 15 213 8
213 -3 0 -7 -6 -9 -12z"/>
<path d="M4025 1500 c3 -5 8 -10 11 -10 2 0 4 5 4 10 0 6 -5 10 -11 10 -5 0
-7 -4 -4 -10z"/>
<path d="M6612 1460 c0 -19 2 -27 5 -17 2 9 2 25 0 35 -3 9 -5 1 -5 -18z"/>
<path d="M4150 1446 c0 -2 7 -7 16 -10 8 -3 12 -2 9 4 -6 10 -25 14 -25 6z"/>
<path d="M4265 1440 c4 -6 11 -8 16 -5 14 9 11 15 -7 15 -8 0 -12 -5 -9 -10z"/>
<path d="M3778 1433 c7 -3 16 -2 19 1 4 3 -2 6 -13 5 -11 0 -14 -3 -6 -6z"/>
<path d="M4190 1432 c0 -5 7 -9 15 -9 8 0 12 4 9 9 -3 4 -9 8 -15 8 -5 0 -9
-4 -9 -8z"/>
<path d="M4512 1400 c0 -14 2 -19 5 -12 2 6 2 18 0 25 -3 6 -5 1 -5 -13z"/>
<path d="M6613 1380 c0 -25 2 -35 4 -22 2 12 2 32 0 45 -2 12 -4 2 -4 -23z"/>
<path d="M3745 1380 c3 -5 8 -10 11 -10 2 0 4 5 4 10 0 6 -5 10 -11 10 -5 0
-7 -4 -4 -10z"/>
<path d="M3805 1380 c3 -5 8 -10 11 -10 2 0 4 5 4 10 0 6 -5 10 -11 10 -5 0
-7 -4 -4 -10z"/>
<path d="M3840 1380 c0 -5 5 -10 10 -10 6 0 10 5 10 10 0 6 -4 10 -10 10 -5 0
-10 -4 -10 -10z"/>
<path d="M3880 1380 c18 -12 30 -13 30 -2 0 4 -10 9 -22 9 -18 2 -20 0 -8 -7z"/>
<path d="M3930 1378 c0 -4 9 -8 20 -8 11 0 20 4 20 8 0 4 -9 8 -20 8 -11 0
-20 -4 -20 -8z"/>
<path d="M4016 1378 c3 -4 9 -8 15 -8 5 0 9 4 9 8 0 5 -7 9 -15 9 -8 0 -12 -4
-9 -9z"/>
<path d="M4060 1380 c0 -5 10 -10 23 -10 18 0 19 2 7 10 -19 13 -30 13 -30 0z"/>
<path d="M4180 1380 c-9 -6 -10 -10 -3 -10 6 0 15 5 18 10 8 12 4 12 -15 0z"/>
<path d="M4377 1383 c-4 -3 -7 -11 -7 -17 0 -6 5 -5 12 2 6 6 9 14 7 17 -3 3
-9 2 -12 -2z"/>
<path d="M3810 1330 c0 -5 5 -10 10 -10 6 0 10 5 10 10 0 6 -4 10 -10 10 -5 0
-10 -4 -10 -10z"/>
<path d="M3675 1280 c-3 -5 -1 -10 4 -10 6 0 11 5 11 10 0 6 -2 10 -4 10 -3 0
-8 -4 -11 -10z"/>
<path d="M3944 1279 c-2 -3 23 -6 56 -7 33 0 60 3 60 7 0 8 -110 9 -116 0z"/>
<path d="M4100 1280 c0 -5 5 -10 10 -10 6 0 10 5 10 10 0 6 -4 10 -10 10 -5 0
-10 -4 -10 -10z"/>
<path d="M4200 1280 c0 -5 5 -10 10 -10 6 0 10 5 10 10 0 6 -4 10 -10 10 -5 0
-10 -4 -10 -10z"/>
<path d="M4240 1275 c0 -8 9 -10 25 -7 14 2 25 6 25 7 0 1 -11 5 -25 7 -16 3
-25 1 -25 -7z"/>
<path d="M4340 1280 c-24 -8 -23 -8 8 -9 20 -1 31 3 27 9 -3 6 -7 10 -8 9 -1
-1 -13 -5 -27 -9z"/>
<path d="M4395 1270 c4 -6 11 -8 16 -5 14 9 11 15 -7 15 -8 0 -12 -5 -9 -10z"/>
<path d="M6611 1264 c0 -11 3 -14 6 -6 3 7 2 16 -1 19 -3 4 -6 -2 -5 -13z"/>
<path d="M1371 1244 c0 -11 3 -14 6 -6 3 7 2 16 -1 19 -3 4 -6 -2 -5 -13z"/>
<path d="M3645 1230 c-3 -5 -1 -10 4 -10 6 0 11 5 11 10 0 6 -2 10 -4 10 -3 0
-8 -4 -11 -10z"/>
<path d="M3680 1230 c0 -5 5 -10 11 -10 5 0 7 5 4 10 -3 6 -8 10 -11 10 -2 0
-4 -4 -4 -10z"/>
<path d="M3850 1228 c0 -5 11 -8 25 -8 14 0 25 3 25 8 0 4 -11 7 -25 7 -14 0
-25 -3 -25 -7z"/>
<path d="M3920 1230 c0 -6 7 -10 15 -10 8 0 15 2 15 4 0 2 -7 6 -15 10 -8 3
-15 1 -15 -4z"/>
<path d="M4140 1230 l-45 -7 42 -1 c23 -1 45 3 48 8 3 6 5 9 3 8 -2 0 -23 -4
-48 -8z"/>
<path d="M3994 1222 c5 -8 76 -4 76 4 0 2 -18 4 -41 4 -22 0 -38 -4 -35 -8z"/>
<path d="M6612 1210 c0 -14 2 -19 5 -12 2 6 2 18 0 25 -3 6 -5 1 -5 -13z"/>
<path d="M1372 1200 c0 -14 2 -19 5 -12 2 6 2 18 0 25 -3 6 -5 1 -5 -13z"/>
<path d="M1305 1180 c3 -5 8 -10 11 -10 2 0 4 5 4 10 0 6 -5 10 -11 10 -5 0
-7 -4 -4 -10z"/>
<path d="M1371 1154 c0 -11 3 -14 6 -6 3 7 2 16 -1 19 -3 4 -6 -2 -5 -13z"/>
<path d="M3620 1150 c0 -12 26 -19 39 -10 9 5 4 9 -13 12 -14 3 -26 2 -26 -2z"/>
<path d="M3870 1145 c0 -8 5 -15 10 -15 6 0 10 7 10 15 0 8 -4 15 -10 15 -5 0
-10 -7 -10 -15z"/>
<path d="M3914 1149 c-8 -13 25 -24 37 -12 7 7 3 12 -10 16 -12 3 -24 1 -27
-4z"/>
<path d="M4365 1150 c-9 -15 37 -30 52 -18 7 6 10 15 6 21 -5 8 -8 7 -11 -1
-2 -8 -9 -9 -22 -2 -13 7 -21 7 -25 0z"/>
<path d="M3680 1142 c0 -4 9 -8 20 -8 11 0 20 4 20 8 0 4 -9 8 -20 8 -11 0
-20 -4 -20 -8z"/>
<path d="M3760 1140 c0 -5 5 -10 10 -10 6 0 10 5 10 10 0 6 -4 10 -10 10 -5 0
-10 -4 -10 -10z"/>
<path d="M3810 1140 c0 -13 11 -13 30 0 12 8 11 10 -7 10 -13 0 -23 -4 -23
-10z"/>
<path d="M3970 1140 c0 -5 5 -10 10 -10 6 0 10 5 10 10 0 6 -4 10 -10 10 -5 0
-10 -4 -10 -10z"/>
<path d="M4090 1140 c0 -5 7 -10 15 -10 8 0 15 5 15 10 0 6 -7 10 -15 10 -8 0
-15 -4 -15 -10z"/>
<path d="M4130 1145 c0 -2 9 -9 20 -15 16 -9 20 -8 20 5 0 8 -9 15 -20 15 -11
0 -20 -2 -20 -5z"/>
<path d="M4200 1140 c-12 -8 -11 -10 8 -10 12 0 22 5 22 10 0 13 -11 13 -30 0z"/>
<path d="M4240 1141 c0 -15 27 -20 59 -11 16 4 32 6 35 2 3 -3 6 -1 6 5 0 6
-22 11 -50 12 -27 0 -50 -3 -50 -8z"/>
<path d="M6612 1130 c0 -14 2 -19 5 -12 2 6 2 18 0 25 -3 6 -5 1 -5 -13z"/>
<path d="M1372 1059 c1 -42 -2 -81 -6 -87 -8 -13 54 -42 89 -42 13 0 25 -4 27
-9 4 -12 226 -15 528 -7 124 4 486 8 805 10 319 3 747 8 950 12 741 14 1715 5
2165 -21 324 -18 355 -18 369 -1 11 13 32 16 106 16 51 0 107 3 124 6 27 6 31
10 31 40 l0 34 -167 1 c-93 0 -177 3 -188 5 -31 7 -4703 7 -4767 0 l-57 -7 4
29 c2 16 -1 44 -5 63 -7 27 -9 18 -8 -42z"/>
<path d="M6612 1080 c0 -14 2 -19 5 -12 2 6 2 18 0 25 -3 6 -5 1 -5 -13z"/>
</g>
</svg>
